<svg xmlns="http://www.w3.org/2000/svg" xmlns:xlink="http://www.w3.org/1999/xlink" width="100" zoomAndPan="magnify" viewBox="0 0 75 74.999997" height="100" preserveAspectRatio="xMidYMid meet" version="1.0"><defs><clipPath id="ea0d9f2a7d"><path d="M 0 3.140625 L 75 3.140625 L 75 72 L 0 72 Z M 0 3.140625 " clip-rule="nonzero"/></clipPath></defs><g clip-path="url(#ea0d9f2a7d)"><path fill="#142532" d="M 64.050781 53.117188 C 63.113281 53.117188 62.488281 53.742188 62.488281 54.679688 L 62.488281 64.050781 C 62.488281 66.550781 60.300781 68.734375 57.804688 68.734375 L 7.824219 68.734375 C 5.328125 68.734375 3.140625 66.550781 3.140625 64.050781 L 3.140625 18.757812 L 62.488281 18.757812 L 62.488281 29.691406 C 62.488281 30.628906 63.113281 31.253906 64.050781 31.253906 C 64.988281 31.253906 65.613281 30.628906 65.613281 29.691406 L 65.613281 10.949219 C 65.613281 6.578125 62.175781 3.140625 57.804688 3.140625 L 7.824219 3.140625 C 3.453125 3.140625 0.015625 6.578125 0.015625 10.949219 L 0.015625 64.050781 C 0.015625 68.421875 3.453125 71.859375 7.824219 71.859375 L 57.804688 71.859375 C 62.175781 71.859375 65.613281 68.421875 65.613281 64.050781 L 65.613281 54.679688 C 65.613281 53.742188 64.988281 53.117188 64.050781 53.117188 Z M 20.320312 9.386719 C 21.257812 9.386719 21.882812 10.011719 21.882812 10.949219 C 21.882812 11.886719 21.257812 12.511719 20.320312 12.511719 C 19.382812 12.511719 18.757812 11.886719 18.757812 10.949219 C 18.757812 10.011719 19.382812 9.386719 20.320312 9.386719 Z M 14.074219 9.386719 C 15.011719 9.386719 15.636719 10.011719 15.636719 10.949219 C 15.636719 11.886719 15.011719 12.511719 14.074219 12.511719 C 13.136719 12.511719 12.511719 11.886719 12.511719 10.949219 C 12.511719 10.011719 13.136719 9.386719 14.074219 9.386719 Z M 7.824219 9.386719 C 8.761719 9.386719 9.386719 10.011719 9.386719 10.949219 C 9.386719 11.886719 8.761719 12.511719 7.824219 12.511719 C 6.890625 12.511719 6.265625 11.886719 6.265625 10.949219 C 6.265625 10.011719 6.890625 9.386719 7.824219 9.386719 Z M 70.296875 34.375 L 67.175781 34.375 C 66.238281 34.375 65.613281 35 65.613281 35.9375 L 65.613281 48.433594 C 65.613281 49.371094 66.238281 49.996094 67.175781 49.996094 C 68.109375 49.996094 68.734375 49.371094 68.734375 48.433594 L 68.734375 43.746094 L 70.296875 43.746094 C 72.796875 43.746094 74.984375 41.5625 74.984375 39.0625 C 74.984375 36.5625 72.796875 34.375 70.296875 34.375 Z M 70.296875 40.625 L 68.734375 40.625 L 68.734375 37.5 L 70.296875 37.5 C 71.234375 37.5 71.859375 38.125 71.859375 39.0625 C 71.859375 40 71.234375 40.625 70.296875 40.625 Z M 54.679688 34.375 C 53.742188 34.375 53.117188 35 53.117188 35.9375 L 53.117188 48.433594 C 53.117188 49.371094 53.742188 49.996094 54.679688 49.996094 C 55.617188 49.996094 56.242188 49.371094 56.242188 48.433594 L 56.242188 43.746094 L 57.804688 43.746094 C 60.300781 43.746094 62.488281 41.5625 62.488281 39.0625 C 62.488281 36.5625 60.300781 34.375 57.804688 34.375 Z M 59.363281 39.0625 C 59.363281 40 58.742188 40.625 57.804688 40.625 L 56.242188 40.625 L 56.242188 37.5 L 57.804688 37.5 C 58.742188 37.5 59.363281 38.125 59.363281 39.0625 Z M 42.183594 35.3125 L 37.5 47.808594 C 37.1875 48.746094 37.5 49.371094 38.4375 49.683594 C 39.375 49.996094 40 49.683594 40.3125 48.746094 L 41.25 46.558594 L 46.246094 46.558594 L 47.183594 48.746094 C 47.496094 49.371094 48.121094 49.683594 48.746094 49.683594 C 49.058594 49.683594 49.058594 49.683594 49.371094 49.683594 C 50.308594 49.371094 50.617188 48.433594 50.308594 47.808594 L 45.621094 35.3125 C 44.683594 34.0625 42.808594 34.0625 42.183594 35.3125 Z M 42.496094 43.746094 L 43.746094 40.3125 L 44.996094 43.746094 Z M 42.496094 43.746094 " fill-opacity="1" fill-rule="nonzero"/></g></svg>