<svg xmlns="http://www.w3.org/2000/svg" xmlns:xlink="http://www.w3.org/1999/xlink" width="100" zoomAndPan="magnify" viewBox="0 0 75 74.999997" height="100" preserveAspectRatio="xMidYMid meet" version="1.0"><defs><clipPath id="73ef1e2087"><path d="M 2 2 L 74.15625 2 L 74.15625 75 L 2 75 Z M 2 2 " clip-rule="nonzero"/></clipPath></defs><g clip-path="url(#73ef1e2087)"><path fill="#142532" d="M 33.863281 38.09375 C 35.574219 38.09375 36.445312 40.171875 35.226562 41.390625 C 34.003906 42.613281 31.929688 41.738281 31.929688 40.027344 C 31.929688 38.949219 32.800781 38.09375 33.863281 38.09375 Z M 34.335938 39.550781 C 33.71875 38.933594 32.785156 39.871094 33.402344 40.488281 C 34.003906 41.105469 34.957031 40.171875 34.335938 39.550781 Z M 17.15625 38.09375 C 18.867188 38.09375 19.738281 40.171875 18.519531 41.390625 C 17.300781 42.613281 15.222656 41.738281 15.222656 40.027344 C 15.222656 38.949219 16.09375 38.09375 17.15625 38.09375 Z M 17.617188 39.550781 C 16.996094 38.933594 16.0625 39.871094 16.679688 40.488281 C 17.300781 41.105469 18.234375 40.171875 17.617188 39.550781 Z M 33.863281 35.527344 C 37.855469 35.527344 39.871094 40.375 37.046875 43.214844 C 34.417969 45.84375 29.914062 44.308594 29.410156 40.660156 L 21.609375 40.660156 C 21.085938 44.308594 16.601562 45.84375 13.96875 43.214844 C 12.734375 41.976562 12.304688 40.105469 12.941406 38.441406 C 11.417969 36.320312 11.546875 33.417969 13.480469 31.484375 C 14.605469 30.359375 16.316406 30.089844 15.824219 28.394531 L 11.640625 14.019531 C 11.402344 13.195312 10.925781 12.511719 10.308594 12.019531 C 2.75 21.152344 3.335938 34.574219 11.765625 43.007812 C 14.019531 45.257812 16.726562 47.035156 19.738281 48.207031 C 20.628906 48.523438 21.671875 48.921875 22.609375 49.109375 C 22.640625 49.109375 22.65625 49.125 22.6875 49.125 C 24.414062 49.539062 26.207031 49.761719 28.0625 49.761719 C 40.789062 49.761719 51.105469 39.441406 51.105469 26.714844 C 51.105469 13.984375 40.789062 3.667969 28.0625 3.667969 C 22.625 3.667969 17.472656 5.554688 13.351562 8.960938 C 14.335938 9.832031 15.113281 10.976562 15.429688 12.371094 L 15.792969 13.496094 L 44.464844 13.464844 C 45.78125 13.464844 46.78125 14.082031 46.480469 15.429688 L 43.578125 28.09375 C 43.070312 30.28125 41.28125 31.914062 38.996094 31.914062 L 31.46875 31.914062 C 31.277344 32.671875 30.738281 33.277344 29.867188 33.277344 L 18.074219 33.277344 C 16.476562 33.277344 15.792969 34.417969 16.253906 35.605469 C 18.757812 35.097656 20.277344 36.792969 20.328125 36.808594 L 30.707031 36.808594 C 31.515625 36.019531 32.625 35.527344 33.863281 35.527344 Z M 29.410156 39.378906 C 29.472656 38.917969 29.613281 38.492188 29.804688 38.078125 L 21.230469 38.078125 C 21.421875 38.492188 21.546875 38.917969 21.625 39.378906 Z M 36.144531 37.730469 C 34.117188 35.699219 30.628906 37.144531 30.628906 40.011719 C 30.628906 42.882812 34.117188 44.324219 36.144531 42.292969 C 37.414062 41.042969 37.414062 38.996094 36.144531 37.730469 Z M 13.652344 37.191406 C 14.035156 36.714844 14.507812 36.335938 15.046875 36.035156 C 14.304688 34.070312 15.539062 32.007812 18.058594 32.007812 L 29.851562 32.007812 C 30.40625 32.007812 30.40625 30.550781 29.851562 30.550781 L 22.292969 30.550781 C 20.722656 30.550781 19.535156 29.457031 19.074219 28.011719 L 14.714844 14.351562 L 14.191406 12.6875 C 13.90625 11.402344 13.113281 10.371094 12.148438 9.644531 C 10.992188 8.722656 9.546875 8.265625 8.375 8.265625 L 4.667969 8.265625 C 3.507812 8.265625 3.398438 9.960938 4.507812 9.960938 L 7.929688 9.960938 C 10.230469 9.960938 12.210938 11.433594 12.875 13.667969 L 17.0625 28.046875 C 17.871094 30.835938 15.539062 31.246094 14.398438 32.386719 C 13.035156 33.703125 12.828125 35.621094 13.652344 37.191406 Z M 19.4375 37.730469 C 17.410156 35.699219 13.921875 37.144531 13.921875 40.011719 C 13.921875 42.882812 17.410156 44.324219 19.4375 42.292969 C 20.707031 41.042969 20.707031 38.996094 19.4375 37.730469 Z M 9.167969 11.417969 C 8.773438 11.292969 8.359375 11.226562 7.914062 11.226562 L 4.492188 11.226562 C 1.71875 11.226562 1.828125 6.996094 4.652344 6.996094 L 8.375 6.996094 C 9.597656 6.996094 11.039062 7.410156 12.304688 8.199219 C 21.925781 0.0078125 36.273438 0.5625 45.242188 9.53125 C 47.382812 11.671875 49.125 14.222656 50.363281 17.03125 L 67.257812 17.03125 C 71.15625 17.03125 74.34375 20.214844 74.34375 24.113281 L 74.34375 53.628906 C 74.34375 57.527344 71.15625 60.710938 67.257812 60.710938 L 50.871094 60.710938 C 51.203125 61.902344 51.726562 62.980469 52.4375 63.945312 C 53.292969 65.101562 54.421875 66.117188 55.832031 67.003906 L 60.285156 67.003906 C 63.804688 67.003906 65.640625 71.300781 63.105469 73.820312 C 62.375 74.550781 61.378906 74.992188 60.285156 74.992188 L 32.992188 74.992188 C 29.472656 74.992188 27.632812 70.699219 30.167969 68.164062 C 30.898438 67.433594 31.898438 66.988281 32.992188 66.988281 L 37.414062 66.988281 C 38.824219 66.101562 39.964844 65.085938 40.820312 63.929688 C 41.550781 62.949219 42.074219 61.871094 42.390625 60.695312 L 26 60.695312 C 22.101562 60.695312 18.914062 57.511719 18.914062 53.613281 L 18.914062 49.238281 C 6.804688 44.324219 0.65625 30.597656 5.285156 18.203125 C 6.203125 15.714844 7.535156 13.429688 9.167969 11.417969 Z M 16.1875 14.761719 L 20.292969 27.632812 C 20.597656 28.570312 21.308594 29.28125 22.308594 29.28125 L 29.867188 29.28125 C 30.738281 29.28125 31.277344 29.898438 31.46875 30.644531 L 38.996094 30.644531 C 40.695312 30.644531 41.976562 29.425781 42.359375 27.808594 L 45.273438 14.984375 C 45.273438 14.730469 44.6875 14.730469 44.480469 14.730469 Z M 50.871094 18.296875 C 51.105469 18.929688 51.3125 19.582031 51.488281 20.246094 L 67.226562 20.246094 C 69.523438 20.246094 71.394531 22.117188 71.394531 24.414062 L 71.394531 53.328125 C 71.394531 55.625 69.523438 57.496094 67.226562 57.496094 L 26.03125 57.496094 C 23.734375 57.496094 21.863281 55.625 21.863281 53.328125 L 21.863281 50.234375 C 21.292969 50.09375 20.722656 49.917969 20.167969 49.726562 L 20.167969 53.628906 C 20.167969 56.828125 22.78125 59.445312 25.984375 59.445312 L 67.257812 59.445312 C 70.460938 59.445312 73.074219 56.828125 73.074219 53.628906 L 73.074219 24.113281 C 73.074219 20.914062 70.460938 18.296875 67.257812 18.296875 Z M 51.820312 21.5 C 55.117188 36.621094 43.609375 51.011719 28.0625 51.011719 C 26.382812 51.011719 24.734375 50.839844 23.148438 50.519531 L 23.148438 53.3125 C 23.148438 54.910156 24.449219 56.210938 26.046875 56.210938 L 67.242188 56.210938 C 68.84375 56.210938 70.144531 54.910156 70.144531 53.3125 L 70.144531 24.398438 C 70.144531 22.800781 68.84375 21.5 67.242188 21.5 Z M 58.476562 25.574219 C 59.300781 25.574219 59.300781 26.839844 58.476562 26.839844 L 53.753906 26.839844 C 52.914062 26.839844 52.914062 25.574219 53.753906 25.574219 Z M 58.476562 28.519531 C 59.300781 28.519531 59.300781 29.789062 58.476562 29.789062 L 53.753906 29.789062 C 52.914062 29.789062 52.914062 28.519531 53.753906 28.519531 Z M 62.550781 47.066406 L 64.359375 47.066406 C 65.4375 47.066406 66.308594 47.9375 66.308594 49.015625 L 66.308594 50.820312 C 66.308594 51.898438 65.4375 52.773438 64.359375 52.773438 L 62.550781 52.773438 C 61.472656 52.773438 60.601562 51.898438 60.601562 50.820312 L 60.601562 49.015625 C 60.601562 47.9375 61.488281 47.066406 62.550781 47.066406 Z M 64.359375 48.332031 L 62.550781 48.332031 C 62.171875 48.332031 61.871094 48.632812 61.871094 49.015625 L 61.871094 50.820312 C 61.871094 51.203125 62.1875 51.503906 62.550781 51.503906 L 64.359375 51.503906 C 64.738281 51.503906 65.039062 51.1875 65.039062 50.820312 L 65.039062 49.015625 C 65.039062 48.632812 64.722656 48.332031 64.359375 48.332031 Z M 58.476562 32.992188 C 59.300781 32.992188 59.300781 34.257812 58.476562 34.257812 L 53.453125 34.257812 C 52.613281 34.257812 52.613281 32.992188 53.453125 32.992188 Z M 58.476562 35.921875 C 59.300781 35.921875 59.300781 37.191406 58.476562 37.191406 L 52.40625 37.191406 C 51.566406 37.191406 51.566406 35.921875 52.40625 35.921875 Z M 62.550781 39.648438 L 64.359375 39.648438 C 65.4375 39.648438 66.308594 40.519531 66.308594 41.597656 L 66.308594 43.402344 C 66.308594 44.480469 65.4375 45.355469 64.359375 45.355469 L 62.550781 45.355469 C 61.472656 45.355469 60.601562 44.480469 60.601562 43.402344 L 60.601562 41.597656 C 60.601562 40.535156 61.488281 39.648438 62.550781 39.648438 Z M 64.359375 40.914062 L 62.550781 40.914062 C 62.171875 40.914062 61.871094 41.234375 61.871094 41.597656 L 61.871094 43.402344 C 61.871094 43.785156 62.1875 44.085938 62.550781 44.085938 L 64.359375 44.085938 C 64.738281 44.085938 65.039062 43.769531 65.039062 43.402344 L 65.039062 41.597656 C 65.039062 41.234375 64.722656 40.914062 64.359375 40.914062 Z M 62.550781 32.246094 L 64.359375 32.246094 C 65.4375 32.246094 66.308594 33.117188 66.308594 34.195312 L 66.308594 36.003906 C 66.308594 37.078125 65.4375 37.953125 64.359375 37.953125 L 62.550781 37.953125 C 61.472656 37.953125 60.601562 37.078125 60.601562 36.003906 L 60.601562 34.195312 C 60.601562 33.117188 61.488281 32.246094 62.550781 32.246094 Z M 64.359375 33.515625 L 62.550781 33.515625 C 62.171875 33.515625 61.871094 33.832031 61.871094 34.195312 L 61.871094 36.003906 C 61.871094 36.382812 62.1875 36.683594 62.550781 36.683594 L 64.359375 36.683594 C 64.738281 36.683594 65.039062 36.367188 65.039062 36.003906 L 65.039062 34.195312 C 65.039062 33.816406 64.722656 33.515625 64.359375 33.515625 Z M 62.550781 24.828125 L 64.359375 24.828125 C 65.4375 24.828125 66.308594 25.699219 66.308594 26.777344 L 66.308594 28.585938 C 66.308594 29.660156 65.4375 30.535156 64.359375 30.535156 L 62.550781 30.535156 C 61.472656 30.535156 60.601562 29.660156 60.601562 28.585938 L 60.601562 26.777344 C 60.601562 25.699219 61.488281 24.828125 62.550781 24.828125 Z M 64.359375 26.097656 L 62.550781 26.097656 C 62.171875 26.097656 61.871094 26.414062 61.871094 26.777344 L 61.871094 28.585938 C 61.871094 28.964844 62.1875 29.265625 62.550781 29.265625 L 64.359375 29.265625 C 64.738281 29.265625 65.039062 28.949219 65.039062 28.585938 L 65.039062 26.777344 C 65.039062 26.398438 64.722656 26.097656 64.359375 26.097656 Z M 58.476562 47.808594 C 59.300781 47.808594 59.300781 49.078125 58.476562 49.078125 L 43.5 49.078125 C 42.660156 49.078125 42.660156 47.808594 43.5 47.808594 Z M 58.476562 50.757812 C 59.300781 50.757812 59.300781 52.027344 58.476562 52.027344 L 40.027344 52.027344 C 39.203125 52.027344 39.203125 50.757812 40.027344 50.757812 Z M 58.476562 40.394531 C 59.300781 40.394531 59.300781 41.660156 58.476562 41.660156 L 49.902344 41.660156 C 49.0625 41.660156 49.0625 40.394531 49.902344 40.394531 Z M 58.476562 43.339844 C 59.300781 43.339844 59.300781 44.609375 58.476562 44.609375 L 47.96875 44.609375 C 47.128906 44.609375 47.128906 43.339844 47.96875 43.339844 Z M 39.601562 67.003906 L 53.675781 67.003906 C 51.613281 65.339844 50.203125 63.265625 49.570312 60.710938 L 43.707031 60.710938 C 43.070312 63.25 41.660156 65.339844 39.601562 67.003906 Z M 60.285156 68.273438 L 32.992188 68.273438 C 30.597656 68.273438 29.328125 71.207031 31.058594 72.933594 C 31.546875 73.425781 32.230469 73.726562 32.992188 73.726562 L 60.285156 73.726562 C 62.679688 73.726562 63.945312 70.792969 62.21875 69.066406 C 61.710938 68.574219 61.03125 68.273438 60.285156 68.273438 Z M 60.285156 68.273438 " fill-opacity="1" fill-rule="nonzero"/></g></svg>