<svg xmlns="http://www.w3.org/2000/svg" xmlns:xlink="http://www.w3.org/1999/xlink" width="100" zoomAndPan="magnify" viewBox="0 0 75 74.999997" height="100" preserveAspectRatio="xMidYMid meet" version="1.0"><defs><clipPath id="01aa80fdcc"><path d="M 0 0.421875 L 75 0.421875 L 75 74.671875 L 0 74.671875 Z M 0 0.421875 " clip-rule="nonzero"/></clipPath><clipPath id="09d5037cfb"><path d="M 25 0.421875 L 40 0.421875 L 40 16 L 25 16 Z M 25 0.421875 " clip-rule="nonzero"/></clipPath></defs><g clip-path="url(#01aa80fdcc)"><path fill="#142532" d="M 69.234375 74.578125 L 5.765625 74.578125 C 2.710938 74.578125 0.269531 72.089844 0.269531 69.082031 L 0.269531 6.484375 C 0.269531 3.433594 2.710938 0.988281 5.765625 0.988281 L 69.234375 0.988281 C 72.246094 0.988281 74.730469 3.433594 74.730469 6.484375 L 74.730469 69.082031 C 74.730469 72.089844 72.246094 74.578125 69.234375 74.578125 Z M 5.765625 2.734375 C 3.714844 2.734375 2.015625 4.390625 2.015625 6.484375 L 2.015625 69.082031 C 2.015625 71.132812 3.714844 72.832031 5.765625 72.832031 L 69.234375 72.832031 C 71.285156 72.832031 72.984375 71.132812 72.984375 69.082031 L 72.984375 6.484375 C 72.984375 4.390625 71.285156 2.734375 69.234375 2.734375 Z M 5.765625 2.734375 " fill-opacity="1" fill-rule="evenodd"/></g><path fill="#142532" d="M 73.859375 15.472656 L 1.140625 15.472656 C 0.0078125 15.472656 0.0078125 13.726562 1.140625 13.726562 L 73.859375 13.726562 C 74.992188 13.726562 74.992188 15.472656 73.859375 15.472656 Z M 73.859375 15.472656 " fill-opacity="1" fill-rule="evenodd"/><g clip-path="url(#09d5037cfb)"><path fill="#142532" d="M 26.878906 15.472656 C 26.09375 15.472656 25.699219 14.554688 26.222656 14.03125 L 38.261719 1.25 C 39.046875 0.421875 40.3125 1.601562 39.527344 2.429688 L 27.488281 15.210938 C 27.3125 15.382812 27.097656 15.472656 26.878906 15.472656 Z M 26.878906 15.472656 " fill-opacity="1" fill-rule="evenodd"/></g><path fill="#142532" d="M 67.839844 9.101562 L 41.882812 9.101562 C 40.707031 9.101562 40.707031 7.359375 41.882812 7.359375 L 67.839844 7.359375 C 68.972656 7.359375 68.972656 9.101562 67.839844 9.101562 Z M 67.839844 9.101562 " fill-opacity="1" fill-rule="evenodd"/><path fill="#142532" d="M 7.773438 10.714844 C 3.628906 10.714844 3.976562 11.109375 3.976562 6.964844 C 3.976562 5.351562 6.070312 5.742188 7.773438 5.742188 C 9.386719 5.742188 8.992188 7.835938 8.992188 9.496094 C 8.992188 10.191406 8.425781 10.714844 7.773438 10.714844 Z M 5.722656 8.972656 L 7.25 8.972656 L 7.25 7.488281 L 5.722656 7.488281 Z M 5.722656 8.972656 " fill-opacity="1" fill-rule="evenodd"/><path fill="#142532" d="M 15.886719 10.714844 C 11.742188 10.714844 12.089844 11.109375 12.089844 6.964844 C 12.089844 5.351562 14.183594 5.742188 15.886719 5.742188 C 17.5 5.742188 17.105469 7.835938 17.105469 9.496094 C 17.105469 10.191406 16.539062 10.714844 15.886719 10.714844 Z M 13.835938 8.972656 L 15.363281 8.972656 L 15.363281 7.488281 L 13.835938 7.488281 Z M 13.835938 8.972656 " fill-opacity="1" fill-rule="evenodd"/><path fill="#142532" d="M 24 10.714844 C 19.855469 10.714844 20.203125 11.109375 20.203125 6.964844 C 20.203125 5.351562 22.296875 5.742188 24 5.742188 C 25.570312 5.742188 25.21875 7.835938 25.21875 9.496094 C 25.21875 10.191406 24.652344 10.714844 24 10.714844 Z M 21.949219 8.972656 L 23.476562 8.972656 L 23.476562 7.488281 L 21.949219 7.488281 Z M 21.949219 8.972656 " fill-opacity="1" fill-rule="evenodd"/><path fill="#142532" d="M 37.914062 46.222656 L 9.253906 46.222656 C 8.773438 46.222656 8.382812 45.832031 8.382812 45.351562 L 8.382812 22.496094 C 8.382812 22.015625 8.773438 21.621094 9.253906 21.621094 L 37.914062 21.621094 C 38.394531 21.621094 38.785156 22.015625 38.785156 22.496094 L 38.785156 45.351562 C 38.785156 45.832031 38.394531 46.222656 37.914062 46.222656 Z M 10.128906 44.480469 L 37.042969 44.480469 L 37.042969 23.367188 L 10.128906 23.367188 Z M 10.128906 44.480469 " fill-opacity="1" fill-rule="evenodd"/><path fill="#142532" d="M 29.277344 46.222656 C 28.972656 46.222656 28.667969 46.09375 28.535156 45.789062 L 19.332031 30.433594 L 9.996094 45.789062 C 9.386719 46.792969 7.902344 45.875 8.511719 44.914062 L 18.589844 28.296875 C 18.9375 27.730469 19.722656 27.730469 20.074219 28.296875 L 30.019531 44.914062 C 30.367188 45.484375 29.933594 46.222656 29.277344 46.222656 Z M 29.277344 46.222656 " fill-opacity="1" fill-rule="evenodd"/><path fill="#142532" d="M 37.914062 46.222656 C 37.609375 46.222656 37.304688 46.09375 37.171875 45.789062 L 29.84375 33.574219 L 26.222656 39.507812 C 25.65625 40.511719 24.171875 39.59375 24.742188 38.589844 L 29.101562 31.4375 C 29.453125 30.871094 30.238281 30.871094 30.585938 31.4375 L 38.65625 44.914062 C 39.003906 45.484375 38.570312 46.222656 37.914062 46.222656 Z M 37.914062 46.222656 " fill-opacity="1" fill-rule="evenodd"/><path fill="#142532" d="M 66.09375 25.984375 L 46.550781 25.984375 C 45.375 25.984375 45.375 24.238281 46.550781 24.238281 L 66.09375 24.238281 C 67.226562 24.238281 67.226562 25.984375 66.09375 25.984375 Z M 66.09375 25.984375 " fill-opacity="1" fill-rule="evenodd"/><path fill="#142532" d="M 66.09375 34.796875 L 46.550781 34.796875 C 45.375 34.796875 45.375 33.050781 46.550781 33.050781 L 66.09375 33.050781 C 67.226562 33.050781 67.226562 34.796875 66.09375 34.796875 Z M 66.09375 34.796875 " fill-opacity="1" fill-rule="evenodd"/><path fill="#142532" d="M 66.09375 43.5625 L 46.550781 43.5625 C 45.375 43.5625 45.375 41.820312 46.550781 41.820312 L 66.09375 41.820312 C 67.226562 41.820312 67.226562 43.5625 66.09375 43.5625 Z M 66.09375 43.5625 " fill-opacity="1" fill-rule="evenodd"/><path fill="#142532" d="M 66.09375 54.074219 L 9.734375 54.074219 C 8.601562 54.074219 8.601562 52.332031 9.734375 52.332031 L 66.09375 52.332031 C 67.226562 52.332031 67.226562 54.074219 66.09375 54.074219 Z M 66.09375 54.074219 " fill-opacity="1" fill-rule="evenodd"/><path fill="#142532" d="M 66.09375 63.628906 L 9.734375 63.628906 C 8.601562 63.628906 8.601562 61.882812 9.734375 61.882812 L 66.09375 61.882812 C 67.226562 61.882812 67.226562 63.628906 66.09375 63.628906 Z M 66.09375 63.628906 " fill-opacity="1" fill-rule="evenodd"/></svg>