<svg xmlns="http://www.w3.org/2000/svg" xmlns:xlink="http://www.w3.org/1999/xlink" width="500" zoomAndPan="magnify" viewBox="0 0 375 374.999991" height="500" preserveAspectRatio="xMidYMid meet" version="1.0"><defs><filter x="0%" y="0%" width="100%" height="100%" id="98ae3b9d6f"><feColorMatrix values="0 0 0 0 1 0 0 0 0 1 0 0 0 0 1 0 0 0 1 0" color-interpolation-filters="sRGB"/></filter><mask id="cc3c69e312"><g filter="url(#98ae3b9d6f)"><rect x="-37.5" width="450" fill="#000000" y="-37.499999" height="449.999989" fill-opacity="0.4"/></g></mask><clipPath id="0e97e85bcb"><rect x="0" width="27" y="0" height="33"/></clipPath><mask id="0aa573997d"><g filter="url(#98ae3b9d6f)"><rect x="-37.5" width="450" fill="#000000" y="-37.499999" height="449.999989" fill-opacity="0.4"/></g></mask><clipPath id="93f9a4f3ae"><path d="M 11 1 L 23.878906 1 L 23.878906 31 L 11 31 Z M 11 1 " clip-rule="nonzero"/></clipPath><clipPath id="c060e48e79"><rect x="0" width="24" y="0" height="33"/></clipPath></defs><path fill="#62c7f4" d="M 90.980469 96.367188 C 78.488281 108.300781 66.226562 109.113281 50.835938 100.46875 C 36.578125 92.457031 25.125 81.121094 19.878906 65.554688 C 17.855469 59.550781 18.851562 53.222656 21.226562 47.546875 C 23.15625 42.9375 25.539062 36.316406 29.015625 31.9375 C 27.355469 30.609375 26.054688 29.652344 26.054688 29.652344 L 19.324219 37.914062 C 19.070312 38.207031 17.867188 39.601562 18.121094 39.308594 L 17.914062 39.546875 C 17.914062 39.546875 17.914062 39.546875 17.921875 39.554688 C 7.582031 52.328125 5.839844 71.457031 15.039062 88.648438 C 27.488281 111.898438 55.265625 122.78125 77.078125 112.960938 C 88.261719 107.921875 92.5 100.058594 94.386719 97.9375 C 94.386719 97.9375 94.289062 95.015625 94.09375 92.644531 C 93.230469 93.914062 92.242188 95.160156 90.980469 96.367188 Z M 90.980469 96.367188 " fill-opacity="1" fill-rule="nonzero"/><path fill="#87d4ff" d="M 21.386719 80.792969 C 33.835938 104.042969 61.609375 114.933594 83.425781 105.109375 C 105.234375 95.289062 112.820312 68.476562 100.375 45.226562 C 87.921875 21.96875 60.148438 11.078125 38.339844 20.898438 C 16.527344 30.722656 8.9375 57.535156 21.386719 80.792969 Z M 21.386719 80.792969 " fill-opacity="1" fill-rule="nonzero"/><path fill="#ffffff" d="M 27.597656 77.996094 C 38.089844 97.589844 61.496094 106.765625 79.882812 98.488281 C 98.257812 90.214844 104.652344 67.617188 94.164062 48.023438 C 83.671875 28.421875 60.261719 19.242188 41.886719 27.519531 C 23.5 35.796875 17.105469 58.394531 27.597656 77.996094 Z M 27.597656 77.996094 " fill-opacity="1" fill-rule="nonzero"/><path fill="#87d4ff" d="M 34.453125 74.90625 C 42.785156 90.464844 61.367188 97.75 75.96875 91.179688 C 90.558594 84.609375 95.636719 66.664062 87.308594 51.109375 C 78.976562 35.546875 60.390625 28.257812 45.796875 34.828125 C 31.199219 41.402344 26.121094 59.34375 34.453125 74.90625 Z M 34.453125 74.90625 " fill-opacity="1" fill-rule="nonzero"/><path fill="#ffffff" d="M 39.253906 72.746094 C 46.070312 85.476562 61.28125 91.441406 73.226562 86.0625 C 85.167969 80.683594 89.324219 66 82.507812 53.269531 C 75.6875 40.53125 60.480469 34.570312 48.539062 39.945312 C 36.589844 45.324219 32.433594 60.007812 39.253906 72.746094 Z M 39.253906 72.746094 " fill-opacity="1" fill-rule="nonzero"/><path fill="#dbf2ff" d="M 48.742188 68.472656 C 52.566406 75.617188 61.105469 78.964844 67.808594 75.945312 C 74.511719 72.925781 76.84375 64.6875 73.019531 57.542969 C 69.191406 50.394531 60.65625 47.046875 53.953125 50.0625 C 47.246094 53.082031 44.914062 61.324219 48.742188 68.472656 Z M 48.742188 68.472656 " fill-opacity="1" fill-rule="nonzero"/><path fill="#000000" d="M 46.488281 97.800781 C 30.9375 91.472656 17.957031 69.898438 24.203125 49.0625 C 24.347656 48.601562 25.035156 48.8125 24.902344 49.273438 C 18.765625 69.730469 31.5 90.914062 46.761719 97.128906 C 46.949219 97.203125 47.039062 97.414062 46.964844 97.601562 C 46.886719 97.785156 46.679688 97.878906 46.488281 97.800781 Z M 46.488281 97.800781 " fill-opacity="1" fill-rule="nonzero"/><path fill="#000000" d="M 105.808594 63.386719 C 101.113281 40.566406 88.308594 25.699219 67.746094 19.1875 C 67.292969 19.039062 67.503906 18.347656 67.96875 18.492188 C 88.796875 25.089844 101.769531 40.144531 106.519531 63.238281 C 106.621094 63.710938 105.902344 63.863281 105.808594 63.386719 Z M 105.808594 63.386719 " fill-opacity="1" fill-rule="nonzero"/><path fill="#fc5197" d="M 366.976562 243.835938 L 353.820312 257.15625 C 353.820312 257.15625 353.808594 257.15625 353.800781 257.144531 C 352.480469 258.4375 350.742188 259.351562 348.761719 259.644531 L 112.503906 294.667969 C 107.789062 295.371094 103.339844 292.332031 102.273438 287.683594 L 66.414062 131.367188 L 65.792969 128.652344 L 61.914062 111.734375 C 61.152344 108.429688 62.289062 105.1875 64.554688 103.042969 L 64.535156 103.011719 L 77.832031 89.777344 C 77.832031 89.777344 84.820312 93.34375 85.90625 93.476562 C 86.742188 93.589844 87.65625 97.074219 88.316406 98.875 C 91.996094 98.527344 305.933594 78.347656 309.902344 77.972656 C 314.476562 77.535156 318.660156 80.574219 319.667969 85.070312 C 362.898438 277.894531 351.132812 225.425781 353.230469 234.777344 L 354.519531 234.433594 Z M 366.976562 243.835938 " fill-opacity="1" fill-rule="nonzero"/><path fill="#ffda66" d="M 93.636719 98.378906 C 89.859375 103.824219 79.457031 118.3125 79.457031 118.3125 L 65.792969 128.652344 L 61.914062 111.734375 C 61.152344 108.429688 62.289062 105.1875 64.554688 103.042969 L 64.535156 103.011719 L 77.832031 89.777344 C 77.832031 89.777344 84.820312 93.34375 85.90625 93.476562 C 86.742188 93.589844 87.65625 97.074219 88.316406 98.875 Z M 93.636719 98.378906 " fill-opacity="1" fill-rule="nonzero"/><path fill="#ff81af" d="M 361.804688 246.59375 L 125.546875 281.617188 C 120.832031 282.316406 116.382812 279.277344 115.316406 274.632812 L 79.457031 118.3125 L 74.957031 98.683594 C 73.71875 93.304688 77.507812 88.066406 82.992188 87.550781 L 322.949219 64.917969 C 327.519531 64.480469 331.703125 67.523438 332.710938 72.015625 L 336.683594 89.746094 L 369.371094 235.550781 C 370.539062 240.738281 367.054688 245.808594 361.804688 246.59375 Z M 361.804688 246.59375 " fill-opacity="1" fill-rule="nonzero"/><path fill="#ffb8d2" d="M 155.707031 257.425781 C 155.144531 257.425781 156.875 263.101562 121.636719 113.242188 C 121.589844 113.046875 121.714844 112.851562 121.910156 112.804688 C 122.105469 112.757812 122.300781 112.878906 122.347656 113.074219 C 158.21875 266.949219 156.484375 257.246094 155.789062 257.417969 C 155.761719 257.421875 155.734375 257.425781 155.707031 257.425781 Z M 155.707031 257.425781 " fill-opacity="1" fill-rule="nonzero"/><path fill="#ffb8d2" d="M 180.484375 253.757812 C 180.320312 253.757812 180.167969 253.644531 180.128906 253.476562 L 146.464844 109.773438 C 146.417969 109.578125 146.539062 109.382812 146.734375 109.339844 C 146.933594 109.296875 147.128906 109.414062 147.171875 109.609375 C 182.988281 263.246094 181.265625 253.574219 180.566406 253.75 C 180.539062 253.753906 180.511719 253.757812 180.484375 253.757812 Z M 180.484375 253.757812 " fill-opacity="1" fill-rule="nonzero"/><path fill="#ffb8d2" d="M 205.273438 250.085938 C 204.707031 250.085938 206.464844 255.867188 171.289062 106.308594 C 171.242188 106.113281 171.367188 105.917969 171.5625 105.871094 C 171.761719 105.824219 171.953125 105.945312 172 106.140625 C 206.769531 255.257812 206.054688 249.90625 205.355469 250.078125 C 205.324219 250.085938 205.300781 250.085938 205.273438 250.085938 Z M 205.273438 250.085938 " fill-opacity="1" fill-rule="nonzero"/><path fill="#ffb8d2" d="M 229.691406 246.125 L 196.128906 102.832031 C 196.082031 102.636719 196.203125 102.441406 196.398438 102.394531 C 196.597656 102.351562 196.792969 102.46875 196.835938 102.667969 L 230.402344 245.960938 C 230.511719 246.429688 229.804688 246.597656 229.691406 246.125 Z M 229.691406 246.125 " fill-opacity="1" fill-rule="nonzero"/><path fill="#ffb8d2" d="M 254.476562 242.453125 L 220.957031 99.363281 C 220.910156 99.171875 221.03125 98.972656 221.230469 98.929688 C 221.425781 98.878906 221.621094 99.003906 221.667969 99.199219 L 255.1875 242.289062 C 255.296875 242.757812 254.589844 242.925781 254.476562 242.453125 Z M 254.476562 242.453125 " fill-opacity="1" fill-rule="nonzero"/><path fill="#ffb8d2" d="M 279.265625 238.785156 L 245.78125 95.898438 C 245.738281 95.703125 245.859375 95.507812 246.054688 95.460938 C 246.253906 95.417969 246.449219 95.535156 246.492188 95.730469 L 279.976562 238.621094 C 280.085938 239.089844 279.378906 239.257812 279.265625 238.785156 Z M 279.265625 238.785156 " fill-opacity="1" fill-rule="nonzero"/><path fill="#ffb8d2" d="M 304.042969 235.117188 L 270.621094 92.429688 C 270.574219 92.234375 270.695312 92.039062 270.894531 91.996094 C 271.09375 91.945312 271.285156 92.070312 271.332031 92.265625 L 304.753906 234.949219 C 304.863281 235.421875 304.15625 235.589844 304.042969 235.117188 Z M 304.042969 235.117188 " fill-opacity="1" fill-rule="nonzero"/><path fill="#ffb8d2" d="M 296.210938 90.964844 C 296.046875 90.964844 295.894531 90.851562 295.855469 90.683594 L 295.449219 88.964844 C 295.339844 88.496094 296.050781 88.332031 296.160156 88.796875 L 296.566406 90.515625 C 296.613281 90.710938 296.488281 90.910156 296.292969 90.953125 C 296.269531 90.960938 296.238281 90.964844 296.210938 90.964844 Z M 296.210938 90.964844 " fill-opacity="1" fill-rule="nonzero"/><path fill="#ffb8d2" d="M 130.472656 251.570312 C 125.789062 230.867188 102.289062 127.023438 99.886719 115.867188 L 98.925781 112.277344 C 97.242188 105.957031 101.808594 99.679688 108.339844 99.363281 C 310.121094 89.558594 296.460938 90.074219 296.566406 90.515625 C 330.617188 236.648438 330 231.59375 329.238281 231.726562 L 141.984375 259.46875 C 136.585938 260.246094 131.632812 256.667969 130.472656 251.570312 Z M 295.925781 90.976562 L 108.375 100.09375 C 102.308594 100.386719 98.0625 106.210938 99.628906 112.089844 L 100.59375 115.699219 C 103 126.867188 126.496094 230.710938 131.183594 251.414062 C 132.285156 256.246094 137.011719 259.480469 141.878906 258.746094 L 328.742188 231.0625 Z M 295.925781 90.976562 " fill-opacity="1" fill-rule="nonzero"/><path fill="#ffb8d2" d="M 329.183594 231.726562 C 329.015625 231.726562 328.867188 231.613281 328.828125 231.445312 C 294.488281 84.621094 295.703125 90.671875 295.921875 90.378906 C 296.140625 90.085938 296.046875 90.289062 307.105469 89.707031 C 311.933594 89.445312 316.320312 92.699219 317.542969 97.390625 L 348.480469 217.394531 C 350.007812 223.304688 346.082031 229.230469 340.046875 230.117188 C 339.753906 230.160156 328.566406 231.820312 329.183594 231.726562 Z M 296.667969 90.941406 L 329.464844 230.953125 C 331.785156 230.609375 340.234375 229.351562 339.941406 229.394531 C 345.535156 228.578125 349.199219 223.082031 347.777344 217.578125 L 316.835938 97.574219 C 315.6875 93.148438 311.539062 90.199219 307.136719 90.433594 Z M 296.667969 90.941406 " fill-opacity="1" fill-rule="nonzero"/><path fill="#ffb8d2" d="M 104.089844 135.097656 C 103.910156 135.097656 103.75 134.957031 103.730469 134.773438 C 103.707031 134.574219 103.851562 134.394531 104.050781 134.371094 C 329.230469 109.367188 320.523438 109.8125 320.605469 110.527344 C 320.6875 111.238281 329.601562 109.714844 104.128906 135.09375 C 104.117188 135.097656 104.105469 135.097656 104.089844 135.097656 Z M 104.089844 135.097656 " fill-opacity="1" fill-rule="nonzero"/><path fill="#ffb8d2" d="M 109.300781 156.148438 C 109.21875 155.4375 100.304688 156.957031 325.777344 131.582031 C 325.957031 131.542969 326.15625 131.703125 326.175781 131.902344 C 326.199219 132.101562 326.054688 132.285156 325.855469 132.304688 C 99.117188 157.652344 109.359375 156.714844 109.300781 156.148438 Z M 109.300781 156.148438 " fill-opacity="1" fill-rule="nonzero"/><path fill="#ffb8d2" d="M 115.234375 177.847656 C 115.054688 177.847656 114.894531 177.710938 114.875 177.523438 C 114.851562 177.324219 114.996094 177.148438 115.195312 177.125 L 331.351562 152.957031 C 331.527344 152.917969 331.726562 153.078125 331.75 153.28125 C 331.773438 153.480469 331.628906 153.660156 331.429688 153.679688 L 115.273438 177.847656 C 115.261719 177.847656 115.25 177.847656 115.234375 177.847656 Z M 115.234375 177.847656 " fill-opacity="1" fill-rule="nonzero"/><path fill="#ffb8d2" d="M 120.445312 198.898438 C 120.421875 198.699219 120.566406 198.523438 120.765625 198.5 L 336.921875 174.335938 C 337.09375 174.292969 337.300781 174.453125 337.324219 174.65625 C 337.34375 174.855469 337.199219 175.035156 337 175.058594 C 107.253906 200.554688 120.53125 199.722656 120.445312 198.898438 Z M 120.445312 198.898438 " fill-opacity="1" fill-rule="nonzero"/><path fill="#ffb8d2" d="M 126.378906 220.601562 C 126.195312 220.601562 126.035156 220.464844 126.015625 220.277344 C 125.996094 220.078125 126.140625 219.898438 126.339844 219.875 L 342.492188 195.710938 C 342.667969 195.667969 342.871094 195.828125 342.894531 196.03125 C 342.917969 196.230469 342.773438 196.410156 342.574219 196.433594 L 126.417969 220.597656 C 126.402344 220.601562 126.390625 220.601562 126.378906 220.601562 Z M 126.378906 220.601562 " fill-opacity="1" fill-rule="nonzero"/><path fill="#ffb8d2" d="M 131.589844 241.65625 C 131.570312 241.457031 131.714844 241.277344 131.914062 241.253906 L 348.066406 217.089844 C 348.273438 217.042969 348.445312 217.207031 348.46875 217.410156 C 348.492188 217.609375 348.34375 217.789062 348.148438 217.8125 C 118.398438 243.308594 131.679688 242.480469 131.589844 241.65625 Z M 131.589844 241.65625 " fill-opacity="1" fill-rule="nonzero"/><path fill="#ffe99c" d="M 336.683594 89.746094 L 79.457031 118.3125 L 74.957031 98.683594 C 73.71875 93.304688 77.507812 88.066406 82.992188 87.550781 L 322.949219 64.917969 C 327.519531 64.480469 331.703125 67.523438 332.710938 72.015625 Z M 336.683594 89.746094 " fill-opacity="1" fill-rule="nonzero"/><path fill="#000000" d="M 168.019531 78.730469 C 167.554688 78.730469 167.527344 78.042969 167.988281 78.003906 C 323.40625 64.867188 316.5625 64.914062 316.625 65.640625 C 316.691406 66.394531 321.804688 65.394531 168.050781 78.726562 C 168.039062 78.730469 168.027344 78.730469 168.019531 78.730469 Z M 168.019531 78.730469 " fill-opacity="1" fill-rule="nonzero"/><path fill="#9e59ff" d="M 112.519531 100.691406 C 112.304688 104.695312 107.605469 107.863281 103.390625 107.886719 C 99.148438 107.914062 95.875 104.660156 96.089844 100.65625 C 96.304688 96.648438 100.152344 93.386719 104.695312 93.394531 C 109.214844 93.40625 112.734375 96.683594 112.519531 100.691406 Z M 112.519531 100.691406 " fill-opacity="1" fill-rule="nonzero"/><path fill="#62c7f4" d="M 133.773438 97.648438 C 133.574219 101.65625 129.960938 104.949219 125.746094 104.976562 C 121.503906 105.003906 118.242188 101.75 118.445312 97.746094 C 118.644531 93.738281 122.234375 90.441406 126.472656 90.414062 C 130.6875 90.390625 133.972656 93.640625 133.773438 97.648438 Z M 133.773438 97.648438 " fill-opacity="1" fill-rule="nonzero"/><path fill="#ff81af" d="M 155.59375 95.519531 C 155.394531 99.527344 151.78125 102.824219 147.566406 102.847656 C 143.328125 102.875 140.066406 99.625 140.265625 95.617188 C 140.464844 91.609375 144.054688 88.3125 148.292969 88.285156 C 152.511719 88.261719 155.796875 91.511719 155.59375 95.519531 Z M 155.59375 95.519531 " fill-opacity="1" fill-rule="nonzero"/><path fill="#1d1e5f" d="M 246.578125 246.226562 L 238.101562 251.003906 L 215.613281 254.394531 L 193.820312 155.28125 L 183.214844 157.1875 L 194.367188 108.5625 L 202.839844 103.789062 C 202.839844 103.789062 205.007812 111.152344 205.367188 112.089844 C 205.730469 113.027344 206.339844 116.992188 206.339844 116.992188 L 204.261719 121.929688 L 219.1875 142.085938 C 219.816406 141.863281 220.816406 141.699219 221.960938 142.222656 C 223.78125 143.054688 233.203125 146.609375 235.066406 147.308594 L 226.589844 152.082031 L 215.363281 152.800781 L 236.121094 242.433594 C 237.925781 242.390625 239.761719 242.3125 240.4375 242.542969 C 241.300781 242.84375 246.578125 246.226562 246.578125 246.226562 Z M 246.578125 246.226562 " fill-opacity="1" fill-rule="nonzero"/><path fill="#1d1e5f" d="M 303.921875 254.839844 L 295.445312 259.613281 L 265.867188 264.074219 L 222.554688 66.015625 L 208.609375 68.53125 L 221.875 4.828125 L 230.351562 0.0507812 C 230.351562 0.0507812 233.105469 12.75 233.222656 13.695312 C 233.300781 14.300781 233.425781 17.648438 233.503906 19.960938 L 258.511719 52.503906 C 258.800781 52.378906 259.199219 52.285156 259.757812 52.25 C 261.601562 52.148438 260.28125 51.347656 262.433594 52.113281 C 264.59375 52.878906 274.144531 57.042969 274.144531 57.042969 L 265.667969 61.816406 L 250.894531 62.761719 L 293.496094 251.003906 C 295.285156 250.949219 296.507812 250.90625 296.507812 250.90625 Z M 303.921875 254.839844 " fill-opacity="1" fill-rule="nonzero"/><path fill="#1d1e5f" d="M 344.027344 239.617188 L 335.554688 244.390625 L 313.066406 247.78125 L 291.269531 148.664062 L 280.667969 150.578125 L 291.816406 101.953125 L 300.292969 97.175781 C 300.292969 97.175781 301.644531 107.90625 301.644531 108.015625 C 301.644531 108.097656 299.714844 110.070312 298.640625 111.164062 L 317.0625 136.042969 C 319.019531 135.0625 320.894531 134.4375 320.894531 134.4375 L 332.515625 140.695312 L 324.039062 145.46875 L 312.8125 146.191406 L 332.238281 230.070312 C 333.324219 230.046875 334.398438 230.175781 335.160156 230.613281 C 337.445312 231.917969 344.027344 239.617188 344.027344 239.617188 Z M 344.027344 239.617188 " fill-opacity="1" fill-rule="nonzero"/><path fill="#36de9d" d="M 235.0625 147.308594 L 223.835938 148.027344 L 246.578125 246.226562 L 224.089844 249.617188 L 202.292969 150.503906 L 191.691406 152.414062 L 202.84375 103.789062 Z M 235.0625 147.308594 " fill-opacity="1" fill-rule="nonzero"/><path fill="#36de9d" d="M 259.371094 57.988281 L 303.921875 254.839844 L 274.339844 259.296875 L 231.03125 61.242188 L 217.082031 63.757812 L 230.351562 0.0507812 L 274.144531 57.042969 Z M 259.371094 57.988281 " fill-opacity="1" fill-rule="nonzero"/><path fill="#36de9d" d="M 321.285156 141.417969 L 344.027344 239.613281 L 321.542969 243.007812 L 299.742188 143.890625 L 289.140625 145.800781 L 300.292969 97.175781 L 332.515625 140.695312 Z M 321.285156 141.417969 " fill-opacity="1" fill-rule="nonzero"/><path fill="#000000" d="M 291.652344 204.152344 L 267.390625 96.8125 L 267.382812 95.457031 C 267.382812 95.253906 267.546875 95.09375 267.746094 95.09375 C 267.949219 95.09375 268.109375 95.253906 268.109375 95.457031 L 268.109375 96.734375 L 292.363281 203.992188 C 292.464844 204.464844 291.761719 204.625 291.652344 204.152344 Z M 291.652344 204.152344 " fill-opacity="1" fill-rule="nonzero"/><path fill="#000000" d="M 280.160156 176.296875 L 267.648438 121.351562 C 267.601562 121.152344 267.726562 120.957031 267.921875 120.914062 C 268.117188 120.871094 268.3125 120.996094 268.359375 121.1875 L 280.871094 176.136719 C 280.980469 176.601562 280.269531 176.773438 280.160156 176.296875 Z M 280.160156 176.296875 " fill-opacity="1" fill-rule="nonzero"/><path fill="#000000" d="M 266.800781 48.25 L 235.644531 7.839844 C 235.15625 6.867188 234.417969 6.0625 233.527344 5.511719 C 233.117188 5.253906 233.503906 4.632812 233.910156 4.890625 C 234.914062 5.511719 235.75 6.421875 236.257812 7.457031 C 268.800781 49.929688 267.875 47.878906 267.308594 48.316406 C 267.242188 48.367188 266.921875 48.414062 266.800781 48.25 Z M 266.800781 48.25 " fill-opacity="1" fill-rule="nonzero"/><path fill="#000000" d="M 254.507812 40.980469 L 241.511719 24.34375 C 241.386719 24.183594 241.414062 23.953125 241.574219 23.832031 C 241.730469 23.707031 241.960938 23.734375 242.085938 23.894531 L 255.082031 40.53125 C 255.378906 40.921875 254.800781 41.359375 254.507812 40.980469 Z M 254.507812 40.980469 " fill-opacity="1" fill-rule="nonzero"/><path fill="#000000" d="M 282.429688 253.058594 C 281.980469 253.058594 281.929688 252.402344 282.375 252.335938 L 300.667969 249.539062 C 300.863281 249.507812 301.050781 249.648438 301.082031 249.847656 C 301.113281 250.046875 300.976562 250.230469 300.777344 250.261719 L 282.480469 253.058594 C 282.464844 253.058594 282.445312 253.058594 282.429688 253.058594 Z M 282.429688 253.058594 " fill-opacity="1" fill-rule="nonzero"/><path fill="#000000" d="M 289.308594 247.53125 L 292.257812 246.757812 C 292.714844 246.625 292.917969 247.335938 292.445312 247.460938 L 289.496094 248.238281 C 289.035156 248.363281 288.84375 247.65625 289.308594 247.53125 Z M 289.308594 247.53125 " fill-opacity="1" fill-rule="nonzero"/><path fill="#000000" d="M 231.964844 143.894531 L 211.109375 115.726562 C 210.246094 114.539062 209.382812 113.351562 208.515625 112.164062 C 208.394531 112.003906 208.429688 111.773438 208.589844 111.65625 C 208.753906 111.535156 208.980469 111.570312 209.101562 111.734375 C 209.96875 112.921875 210.835938 114.109375 211.699219 115.300781 L 213.84375 118.25 L 232.550781 143.464844 C 232.839844 143.847656 232.25 144.285156 231.964844 143.894531 Z M 231.964844 143.894531 " fill-opacity="1" fill-rule="nonzero"/><path fill="#000000" d="M 241.824219 227.425781 L 225.480469 157.988281 L 225.195312 157.988281 C 224.992188 157.988281 224.832031 157.824219 224.832031 157.625 C 224.832031 157.421875 224.992188 157.257812 225.195312 157.257812 L 225.769531 157.257812 C 225.9375 157.257812 226.085938 157.375 226.125 157.542969 L 242.535156 227.261719 C 242.648438 227.730469 241.9375 227.898438 241.824219 227.425781 Z M 241.824219 227.425781 " fill-opacity="1" fill-rule="nonzero"/><path fill="#000000" d="M 230.949219 210.996094 L 223.3125 176.421875 C 223.269531 176.226562 223.390625 176.027344 223.589844 175.984375 C 223.808594 175.945312 223.980469 176.070312 224.023438 176.261719 L 231.660156 210.835938 C 231.761719 211.308594 231.050781 211.464844 230.949219 210.996094 Z M 230.949219 210.996094 " fill-opacity="1" fill-rule="nonzero"/><path fill="#000000" d="M 297.121094 140.308594 L 304.652344 115.601562 C 304.78125 115.15625 305.492188 115.34375 305.347656 115.816406 L 297.816406 140.519531 C 297.683594 140.980469 296.976562 140.769531 297.121094 140.308594 Z M 297.121094 140.308594 " fill-opacity="1" fill-rule="nonzero"/><path fill="#000000" d="M 306.976562 128.972656 L 306.976562 125.589844 C 306.976562 125.109375 307.703125 125.109375 307.703125 125.589844 L 307.703125 128.972656 C 307.703125 129.453125 306.976562 129.453125 306.976562 128.972656 Z M 306.976562 128.972656 " fill-opacity="1" fill-rule="nonzero"/><path fill="#000000" d="M 341.425781 229.25 C 340.859375 229.25 342.230469 233.355469 325.109375 160.773438 C 325.0625 160.578125 325.183594 160.378906 325.382812 160.335938 C 325.582031 160.292969 325.773438 160.410156 325.820312 160.609375 C 342.5625 232.890625 342.214844 229.066406 341.507812 229.242188 C 341.480469 229.246094 341.457031 229.25 341.425781 229.25 Z M 341.425781 229.25 " fill-opacity="1" fill-rule="nonzero"/><path fill="#000000" d="M 327.132812 208.980469 C 326.945312 208.980469 326.789062 208.839844 326.769531 208.652344 L 325.339844 193.152344 C 325.320312 192.949219 325.46875 192.773438 325.667969 192.753906 C 325.855469 192.710938 326.046875 192.882812 326.0625 193.082031 L 327.492188 208.582031 C 327.511719 208.785156 327.363281 208.960938 327.167969 208.980469 C 327.15625 208.980469 327.144531 208.980469 327.132812 208.980469 Z M 327.132812 208.980469 " fill-opacity="1" fill-rule="nonzero"/><path fill="#000000" d="M 80.222656 118.574219 C 80.035156 118.574219 79.878906 118.433594 79.859375 118.246094 C 79.839844 118.046875 79.984375 117.871094 80.183594 117.847656 C 169.582031 108.375 164.425781 108.394531 164.5 109.117188 C 164.578125 109.828125 168.929688 108.832031 80.261719 118.570312 C 80.246094 118.574219 80.234375 118.574219 80.222656 118.574219 Z M 80.222656 118.574219 " fill-opacity="1" fill-rule="nonzero"/><path fill="#000000" d="M 93.609375 126.6875 C 93.425781 126.6875 93.265625 126.546875 93.25 126.359375 C 93.175781 125.640625 90.664062 126.414062 148 120.753906 C 148.210938 120.730469 148.375 120.878906 148.394531 121.082031 C 148.414062 121.28125 148.269531 121.457031 148.066406 121.476562 L 93.644531 126.6875 C 93.632812 126.6875 93.621094 126.6875 93.609375 126.6875 Z M 93.609375 126.6875 " fill-opacity="1" fill-rule="nonzero"/><path fill="#000000" d="M 269.046875 77.289062 C 268.582031 77.289062 268.554688 76.597656 269.015625 76.558594 C 312.265625 73.207031 310.617188 72.824219 310.675781 73.53125 C 310.726562 74.246094 312.355469 73.589844 269.074219 77.285156 C 269.066406 77.289062 269.054688 77.289062 269.046875 77.289062 Z M 269.046875 77.289062 " fill-opacity="1" fill-rule="nonzero"/><path fill="#000000" d="M 119.441406 227.269531 C 104.222656 156.804688 105.160156 161.820312 104.863281 159.1875 C 104.808594 158.71875 105.523438 158.609375 105.585938 159.101562 C 105.644531 159.59375 105.695312 160.234375 105.746094 160.691406 L 120.148438 227.117188 C 120.253906 227.589844 119.542969 227.746094 119.441406 227.269531 Z M 119.441406 227.269531 " fill-opacity="1" fill-rule="nonzero"/><path fill="#9e59ff" d="M 98.09375 291.394531 C 96.164062 304.199219 90.878906 336.074219 92.027344 345.171875 C 92.433594 348.410156 92.523438 351.726562 90.414062 354.203125 C 86.265625 359.039062 80.210938 358.5 74.808594 356.304688 C 60.128906 350.34375 46.429688 339.835938 38.363281 326.0625 C 34.726562 319.890625 28.792969 307.777344 32.714844 300.265625 C 33.34375 299.050781 34.234375 297.953125 35.4375 297.023438 C 42.03125 291.914062 52.246094 294.898438 59.109375 297.722656 C 66.699219 300.847656 79.707031 308.894531 80.816406 316.886719 C 82.3125 311.085938 87.925781 285.296875 89.421875 279.496094 " fill-opacity="1" fill-rule="nonzero"/><path fill="#9e59ff" d="M 124.660156 273.53125 C 124.796875 275.03125 125.582031 276.738281 126.023438 278.179688 C 131.773438 297.089844 137.15625 309.117188 138.699219 321.960938 C 136.875 324.207031 135.316406 326.6875 133.929688 329.136719 C 123.832031 346.847656 124.339844 351.363281 122.980469 362.871094 C 122.765625 364.605469 122.605469 366.355469 122.929688 368.054688 C 124.269531 375.007812 132.625 373.089844 137.195312 370.859375 C 147.6875 365.808594 155.613281 356.652344 162.15625 347.042969 C 165.261719 342.46875 168.171875 337.621094 169.15625 332.203125 C 169.851562 328.347656 169.441406 324.140625 167.574219 320.644531 C 165.089844 316.03125 159.078125 313.25 153.722656 313.230469 C 150.808594 309.398438 147.914062 305.585938 145.015625 301.730469 C 140.800781 296.140625 141.777344 296.933594 142.535156 273.296875 C 137.253906 272.90625 126.605469 272.414062 125.597656 272.503906 C 124.539062 272.589844 124.554688 272.492188 124.660156 273.53125 Z M 124.660156 273.53125 " fill-opacity="1" fill-rule="nonzero"/><path fill="#000000" d="M 140.472656 360.984375 C 151.714844 351.65625 161.914062 340.105469 162.203125 325.429688 C 162.207031 325.230469 162.402344 325.089844 162.578125 325.074219 C 162.777344 325.074219 162.933594 325.242188 162.933594 325.445312 C 162.800781 332.195312 160.367188 339.246094 155.898438 345.839844 C 152.382812 351.03125 147.769531 355.878906 140.941406 361.546875 C 140.5625 361.847656 140.105469 361.296875 140.472656 360.984375 Z M 140.472656 360.984375 " fill-opacity="1" fill-rule="nonzero"/><path fill="#000000" d="M 149.8125 341.066406 C 149.644531 340.953125 149.597656 340.730469 149.710938 340.5625 C 152.773438 335.960938 154.550781 330.378906 154.714844 324.855469 C 154.71875 324.660156 154.882812 324.503906 155.078125 324.503906 C 155.082031 324.503906 155.085938 324.503906 155.089844 324.503906 C 155.289062 324.507812 155.449219 324.675781 155.441406 324.878906 C 155.273438 330.539062 153.453125 336.25 150.316406 340.964844 C 150.207031 341.128906 149.984375 341.179688 149.8125 341.066406 Z M 149.8125 341.066406 " fill-opacity="1" fill-rule="nonzero"/><path fill="#1d1e5f" d="M 90.835938 353.660156 C 88.1875 357.496094 82.78125 359.542969 74.808594 356.304688 C 60.128906 350.34375 46.429688 339.835938 38.363281 326.0625 C 34.726562 319.890625 28.792969 307.777344 32.714844 300.265625 C 44.175781 300.980469 55.367188 305.792969 64.367188 313.039062 C 75.429688 321.925781 83.394531 334.226562 88.820312 347.34375 C 89.664062 349.390625 90.460938 351.492188 90.835938 353.660156 Z M 90.835938 353.660156 " fill-opacity="1" fill-rule="nonzero"/><path fill="#ffda66" d="M 132.230469 292.207031 C 132.257812 292.320312 132.269531 292.382812 132.269531 292.382812 L 119.054688 294.535156 C 119.054688 294.535156 118.332031 293.515625 117.726562 292.277344 C 83.910156 288.507812 57.535156 257.578125 57.535156 219.980469 C 57.535156 192.71875 71.402344 168.964844 91.917969 156.53125 C 89.777344 155.640625 88.371094 155.039062 88.371094 155.039062 L 107.03125 149.707031 C 107.03125 149.707031 107.097656 149.730469 107.222656 149.789062 C 107.222656 149.789062 107.222656 149.785156 107.226562 149.789062 C 149.832031 137.378906 191.816406 172.179688 191.816406 219.980469 C 191.816406 257.355469 165.753906 288.140625 132.230469 292.207031 Z M 132.230469 292.207031 " fill-opacity="1" fill-rule="nonzero"/><path fill="#9e59ff" d="M 55.121094 229.46875 C 39.957031 228.894531 24.910156 225.382812 11.050781 219.191406 C 5.597656 216.757812 3.933594 214.539062 4.726562 207.296875 C 5.9375 196.226562 7.960938 185.097656 12.121094 174.71875 C 16.054688 164.914062 21.089844 155.53125 30.5 150.03125 C 35.339844 147.199219 38.667969 148.632812 38.835938 155.105469 C 39 161.378906 38.527344 167.667969 37.433594 173.847656 C 37.152344 175.453125 36.789062 177.125 35.742188 178.375 C 34.070312 180.367188 31.148438 180.71875 28.550781 180.558594 C 25.957031 180.394531 23.28125 179.871094 20.800781 180.652344 C 18.695312 185.476562 16.710938 190.277344 14.867188 195.171875 C 13.003906 200.117188 11.214844 205.507812 10.644531 210.792969 C 26.707031 219.875 44.898438 225.160156 63.320312 226.105469 " fill-opacity="1" fill-rule="nonzero"/><path fill="#fcc732" d="M 173.355469 224.269531 C 173.355469 263.789062 143.292969 295.828125 106.210938 295.828125 C 69.132812 295.828125 39.074219 263.789062 39.074219 224.269531 C 39.074219 184.746094 69.132812 152.707031 106.210938 152.707031 C 143.292969 152.707031 173.355469 184.746094 173.355469 224.269531 Z M 173.355469 224.269531 " fill-opacity="1" fill-rule="nonzero"/><path fill="#000000" d="M 106.214844 296.195312 C 68.992188 296.195312 38.710938 263.929688 38.710938 224.269531 C 38.710938 223.785156 39.4375 223.785156 39.4375 224.269531 C 39.4375 263.523438 69.390625 295.464844 106.214844 295.464844 C 143.035156 295.464844 172.992188 263.523438 172.992188 224.269531 C 172.992188 224.066406 173.152344 223.90625 173.355469 223.90625 C 173.558594 223.90625 173.71875 224.066406 173.71875 224.269531 C 173.71875 263.929688 143.4375 296.195312 106.214844 296.195312 Z M 106.214844 296.195312 " fill-opacity="1" fill-rule="nonzero"/><path fill="#ffda66" d="M 157.59375 224.269531 C 157.59375 254.511719 134.113281 279.03125 105.15625 279.03125 C 76.195312 279.03125 52.722656 254.511719 52.722656 224.269531 C 52.722656 194.023438 76.195312 169.507812 105.15625 169.507812 C 134.113281 169.507812 157.59375 194.023438 157.59375 224.269531 Z M 157.59375 224.269531 " fill-opacity="1" fill-rule="nonzero"/><path fill="#f7b40d" d="M 110.496094 278.746094 C 79.480469 282.023438 52.722656 256.640625 52.722656 224.269531 C 52.722656 194.027344 76.195312 169.503906 105.15625 169.503906 C 106.957031 169.503906 108.738281 169.601562 110.496094 169.789062 C 84.054688 172.59375 63.425781 195.914062 63.425781 224.269531 C 63.425781 252.625 84.054688 275.945312 110.496094 278.746094 Z M 110.496094 278.746094 " fill-opacity="1" fill-rule="nonzero"/><path fill="#ffffff" d="M 187.589844 195.9375 L 160.363281 206.792969 C 158.359375 208.277344 156.519531 207.675781 152.832031 208.019531 L 143.835938 234.910156 L 117.773438 234.671875 C 115.230469 234.640625 112.871094 233.324219 111.496094 231.203125 L 95.089844 205.957031 L 86.390625 205.507812 L 77.964844 227.671875 L 48.054688 227.429688 C 45.546875 227.402344 43.484375 225.367188 43.421875 222.855469 L 42.765625 191.570312 C 42.734375 190.253906 43.8125 189.175781 45.15625 189.207031 L 85.496094 189.957031 C 86.570312 189.984375 87.496094 190.671875 87.855469 191.691406 L 89.679688 197.042969 C 90.007812 198.0625 90.933594 198.75 91.980469 198.777344 C 92.453125 198.707031 94.59375 199.292969 95.535156 197.402344 L 97.988281 192.40625 C 98.554688 191.210938 99.78125 190.464844 101.125 190.492188 L 158.03125 192.078125 C 158.148438 192.078125 158.269531 192.078125 158.390625 192.140625 L 185.558594 188.308594 C 186.511719 191.152344 187.320312 193.84375 187.589844 195.9375 Z M 187.589844 195.9375 " fill-opacity="1" fill-rule="nonzero"/><path fill="#1d1e5f" d="M 147.957031 202.277344 L 140.667969 226.894531 C 140.457031 227.671875 139.738281 228.179688 138.933594 228.179688 L 115.320312 228.179688 C 114.605469 228.179688 113.945312 227.761719 113.679688 227.074219 L 100.839844 201.632812 C 100.359375 200.40625 101.257812 199.121094 102.542969 199.121094 L 113.257812 199.347656 C 113.5625 199.351562 146.578125 199.980469 146.285156 199.976562 C 147.449219 200.003906 148.289062 201.140625 147.957031 202.277344 Z M 147.957031 202.277344 " fill-opacity="1" fill-rule="nonzero"/><path fill="#9e59ff" d="M 177.390625 243.355469 C 192.097656 248.050781 205.691406 256.210938 216.753906 266.984375 C 215.167969 271.140625 212.570312 275.121094 210.011719 278.722656 C 207.476562 282.292969 204.84375 285.753906 202.113281 289.207031 C 199.941406 289.3125 197.890625 288.316406 195.824219 287.632812 C 193.757812 286.945312 191.316406 286.609375 189.539062 287.863281 C 188.425781 288.652344 187.777344 289.925781 187.207031 291.164062 C 185.003906 295.933594 183.28125 300.921875 182.078125 306.03125 C 180.835938 311.300781 183.214844 313.179688 187.742188 311.917969 C 196.527344 309.476562 202.601562 302.957031 207.875 295.859375 C 213.453125 288.351562 217.460938 279.777344 220.800781 271.078125 C 222.972656 265.417969 222.132812 263.257812 218.214844 260.101562 C 208.320312 252.132812 196.890625 246.085938 184.742188 242.382812 C 182.871094 241.511719 177.25 242.292969 177.390625 243.355469 Z M 177.390625 243.355469 " fill-opacity="1" fill-rule="nonzero"/><path fill="#1d1e5f" d="M 123.972656 265.160156 C 119.953125 267.820312 108.660156 263.226562 100.402344 262.808594 C 93.609375 262.460938 85.40625 264.332031 80.65625 263.089844 C 79.359375 262.75 78.074219 262.164062 76.824219 261.164062 C 74.132812 259.019531 73.652344 255.800781 73.359375 252.738281 C 72.53125 244.023438 77.664062 235.988281 86.277344 238.046875 C 88.027344 238.464844 89.761719 239.277344 91.511719 239.6875 C 96.679688 240.90625 101.738281 239.8125 106.449219 238.855469 C 113.082031 237.503906 120.171875 242.265625 123.804688 248.414062 C 126.632812 253.203125 128.109375 262.425781 123.972656 265.160156 Z M 123.972656 265.160156 " fill-opacity="1" fill-rule="nonzero"/><path fill="#ffffff" d="M 117.183594 241.40625 C 117.300781 242.585938 117.386719 243.765625 117.4375 244.9375 C 117.566406 247.839844 116.714844 248.34375 114.386719 248.09375 C 113.679688 248.019531 112.941406 247.9375 112.261719 247.546875 C 111.722656 247.238281 111.21875 246.6875 111.019531 246.085938 C 111.183594 247.003906 111.285156 247.921875 111.339844 248.832031 C 111.386719 249.683594 111.203125 249.96875 110.308594 249.953125 C 108.523438 249.921875 106.726562 249.839844 104.925781 249.699219 C 104.691406 248.625 104.28125 247.554688 103.726562 246.566406 C 103.917969 247.507812 104.003906 248.457031 103.984375 249.371094 C 103.964844 250.019531 103.8125 250.195312 103.144531 250.164062 C 95.808594 249.835938 95.992188 249.90625 95.75 249.726562 C 95.457031 249.519531 95.359375 249.089844 94.367188 246.65625 C 94.394531 247.410156 94.417969 248.164062 94.441406 248.921875 C 94.460938 249.484375 94.335938 249.671875 93.726562 249.597656 C 91.820312 249.351562 89.898438 248.933594 87.988281 248.347656 C 87.207031 248.105469 87.34375 248.117188 86.320312 244.808594 C 86.421875 245.609375 86.375 246.398438 86.179688 247.101562 C 78.640625 244.898438 78.507812 245.261719 78.015625 243.328125 C 77.75 242.269531 77.542969 241.203125 77.390625 240.140625 C 79.679688 238.058594 82.808594 237.214844 86.277344 238.046875 C 88.027344 238.464844 89.761719 239.277344 91.511719 239.6875 C 96.679688 240.90625 101.738281 239.8125 106.449219 238.855469 C 109.941406 238.144531 113.789062 239.164062 117.183594 241.40625 Z M 117.183594 241.40625 " fill-opacity="1" fill-rule="nonzero"/><path fill="#ff81af" d="M 122.121094 265.855469 C 115.234375 266.390625 107.824219 263.183594 100.402344 262.808594 C 93.609375 262.460938 85.40625 264.332031 80.65625 263.089844 C 75.917969 258.355469 77.085938 251.953125 87.984375 251.316406 C 91.324219 251.121094 94.714844 251.8125 97.820312 253.15625 C 98.765625 253.5625 99.742188 254.386719 100.703125 254.289062 C 101.714844 254.183594 102.230469 253.164062 103.089844 252.769531 C 110.621094 249.320312 124.472656 258.054688 122.121094 265.855469 Z M 122.121094 265.855469 " fill-opacity="1" fill-rule="nonzero"/><path fill="#1d1e5f" d="M 81.996094 197.492188 C 75.019531 221.804688 75.738281 220.890625 74.914062 221.511719 C 74.675781 221.660156 74.375 221.75 74.078125 221.75 C 73.785156 221.742188 71.84375 221.679688 72.136719 221.691406 C 71.832031 221.6875 49.964844 221.386719 50.257812 221.390625 C 49.570312 221.359375 48.972656 220.824219 48.914062 220.105469 L 46.941406 196.476562 C 46.878906 195.636719 47.539062 194.921875 48.375 194.949219 L 48.914062 194.980469 L 50.167969 195.011719 L 56.324219 195.128906 L 60.660156 195.25 C 60.953125 195.253906 82.054688 195.695312 80.710938 195.667969 C 81.640625 195.699219 82.265625 196.59375 81.996094 197.492188 Z M 81.996094 197.492188 " fill-opacity="1" fill-rule="nonzero"/><g mask="url(#cc3c69e312)"><g transform="matrix(1, 0, 0, 1, 47, 192)"><g clip-path="url(#0e97e85bcb)"><path fill="#ffffff" d="M 17.992188 29.601562 L 11.835938 29.511719 L 3.167969 3.011719 L 9.324219 3.128906 Z M 17.992188 29.601562 " fill-opacity="1" fill-rule="nonzero"/><path fill="#ffffff" d="M 25.164062 29.691406 C 24.871094 29.6875 22.003906 29.65625 22.296875 29.660156 L 13.660156 3.25 L 16.558594 3.308594 Z M 25.164062 29.691406 " fill-opacity="1" fill-rule="nonzero"/></g></g></g><g mask="url(#0aa573997d)"><g transform="matrix(1, 0, 0, 1, 111, 198)"><g clip-path="url(#c060e48e79)"><path fill="#ffffff" d="M 17.800781 30.179688 L 11.675781 30.179688 L 2.257812 1.347656 L 8.417969 1.46875 Z M 17.800781 30.179688 " fill-opacity="1" fill-rule="nonzero"/><g clip-path="url(#93f9a4f3ae)"><path fill="#ffffff" d="M 23.269531 30.179688 L 20.429688 30.179688 L 11.078125 1.527344 C 11.371094 1.53125 14.238281 1.59375 13.945312 1.585938 Z M 23.269531 30.179688 " fill-opacity="1" fill-rule="nonzero"/></g></g></g></g><path fill="#000000" d="M 208.164062 260.171875 C 197.019531 252.46875 186.84375 247.027344 177.058594 243.535156 C 176.867188 243.46875 176.769531 243.261719 176.835938 243.070312 C 176.902344 242.882812 177.113281 242.785156 177.300781 242.847656 C 187.148438 246.363281 197.378906 251.832031 208.582031 259.574219 C 208.746094 259.6875 208.785156 259.914062 208.671875 260.082031 C 208.546875 260.257812 208.3125 260.28125 208.164062 260.171875 Z M 208.164062 260.171875 " fill-opacity="1" fill-rule="nonzero"/><path fill="#000000" d="M 158.074219 179.796875 C 134.566406 149.441406 102.445312 144.363281 67.625 165.464844 C 67.464844 165.570312 67.230469 165.519531 67.125 165.339844 C 67.019531 165.171875 67.074219 164.945312 67.25 164.84375 C 102.425781 143.511719 134.886719 148.664062 158.648438 179.355469 C 158.945312 179.734375 158.363281 180.179688 158.074219 179.796875 Z M 158.074219 179.796875 " fill-opacity="1" fill-rule="nonzero"/><path fill="#000000" d="M 181.195312 181.792969 C 167.484375 160.257812 149.726562 148.714844 128.410156 147.480469 C 127.949219 147.453125 127.945312 146.757812 128.449219 146.75 C 150.015625 148.003906 167.96875 159.65625 181.808594 181.398438 C 182.070312 181.808594 181.453125 182.195312 181.195312 181.792969 Z M 181.195312 181.792969 " fill-opacity="1" fill-rule="nonzero"/><path fill="#000000" d="M 10.5 211.523438 C 10.476562 211.523438 10.449219 211.519531 10.425781 211.511719 C 10.226562 211.472656 10.101562 211.28125 10.144531 211.085938 C 11.425781 204.730469 15.78125 192.21875 19.992188 180.121094 C 20.121094 179.738281 20.699219 179.828125 20.699219 180.238281 L 20.699219 180.335938 C 20.699219 180.433594 20.664062 180.519531 20.601562 180.585938 C 16.421875 192.589844 12.125 204.960938 10.851562 211.230469 C 10.820312 211.402344 10.667969 211.523438 10.5 211.523438 Z M 10.5 211.523438 " fill-opacity="1" fill-rule="nonzero"/><path fill="#000000" d="M 22.566406 217.054688 C 22.515625 217.054688 22.46875 217.042969 22.417969 217.023438 L 10.15625 211.511719 C 9.722656 211.320312 10 210.664062 10.453125 210.847656 L 22.714844 216.359375 C 22.898438 216.441406 22.980469 216.65625 22.898438 216.839844 C 22.835938 216.976562 22.707031 217.054688 22.566406 217.054688 Z M 22.566406 217.054688 " fill-opacity="1" fill-rule="nonzero"/><path fill="#000000" d="M 20.144531 164.585938 C 21.992188 161.289062 24.292969 158.257812 26.980469 155.582031 C 29.25 153.324219 29.609375 154.980469 28.953125 155.113281 C 28.40625 155.230469 27.929688 155.664062 27.492188 156.097656 C 24.851562 158.726562 22.597656 161.703125 20.78125 164.945312 C 20.539062 165.363281 19.914062 165.007812 20.144531 164.585938 Z M 20.144531 164.585938 " fill-opacity="1" fill-rule="nonzero"/><path fill="#000000" d="M 24.863281 163.335938 C 25.582031 162.03125 26.511719 160.871094 27.628906 159.890625 C 27.980469 159.570312 28.476562 160.113281 28.109375 160.4375 C 27.054688 161.363281 26.175781 162.457031 25.5 163.6875 C 25.273438 164.109375 24.628906 163.761719 24.863281 163.335938 Z M 24.863281 163.335938 " fill-opacity="1" fill-rule="nonzero"/><path fill="#000000" d="M 181.589844 309.238281 C 181.566406 309.238281 181.546875 309.234375 181.523438 309.230469 C 181.328125 309.195312 181.195312 309.003906 181.234375 308.808594 C 182.554688 301.625 184.714844 295.539062 187.839844 290.191406 C 188.070312 289.78125 188.714844 290.136719 188.464844 290.5625 C 185.386719 295.832031 183.253906 301.847656 181.949219 308.9375 C 181.917969 309.113281 181.765625 309.238281 181.589844 309.238281 Z M 181.589844 309.238281 " fill-opacity="1" fill-rule="nonzero"/><path fill="#000000" d="M 185.625 306.734375 C 185.429688 306.6875 185.3125 306.488281 185.359375 306.292969 C 186.234375 302.84375 187.273438 299.398438 188.445312 296.042969 C 188.605469 295.585938 189.289062 295.832031 189.132812 296.28125 C 187.964844 299.617188 186.933594 303.042969 186.066406 306.472656 C 186.011719 306.679688 185.796875 306.789062 185.625 306.734375 Z M 185.625 306.734375 " fill-opacity="1" fill-rule="nonzero"/><path fill="#000000" d="M 80.554688 316.464844 C 80.832031 315.882812 80.558594 316.675781 84.179688 301.238281 C 84.292969 300.777344 85 300.929688 84.890625 301.402344 C 83.933594 305.46875 81.53125 316.007812 81.3125 316.539062 C 81.28125 316.617188 81.253906 316.691406 81.21875 316.765625 C 81.015625 317.203125 80.359375 316.902344 80.554688 316.464844 Z M 80.554688 316.464844 " fill-opacity="1" fill-rule="nonzero"/><path fill="#000000" d="M 90.859375 339.640625 L 95.097656 309.1875 C 95.167969 308.699219 95.886719 308.820312 95.820312 309.289062 L 91.582031 339.742188 C 91.515625 340.226562 90.792969 340.117188 90.859375 339.640625 Z M 90.859375 339.640625 " fill-opacity="1" fill-rule="nonzero"/><path fill="#fff1c1" d="M 42.945312 327.042969 L 61.84375 314.429688 C 62.011719 314.328125 62.238281 314.363281 62.347656 314.53125 C 62.460938 314.699219 62.417969 314.925781 62.25 315.035156 L 43.347656 327.648438 C 42.953125 327.917969 42.539062 327.3125 42.945312 327.042969 Z M 42.945312 327.042969 " fill-opacity="1" fill-rule="nonzero"/><path fill="#fff1c1" d="M 49.65625 335.414062 L 68.761719 322.394531 C 68.929688 322.277344 69.148438 322.324219 69.265625 322.488281 C 69.378906 322.65625 69.335938 322.882812 69.171875 322.996094 L 50.066406 336.019531 C 49.671875 336.289062 49.253906 335.691406 49.65625 335.414062 Z M 49.65625 335.414062 " fill-opacity="1" fill-rule="nonzero"/><path fill="#fff1c1" d="M 59.683594 346.46875 L 78.582031 334.273438 C 78.746094 334.171875 78.972656 334.210938 79.085938 334.382812 C 79.191406 334.550781 79.144531 334.777344 78.972656 334.886719 L 60.074219 347.082031 C 59.664062 347.335938 59.277344 346.730469 59.683594 346.46875 Z M 59.683594 346.46875 " fill-opacity="1" fill-rule="nonzero"/><path fill="#62c7f4" d="M 318.886719 326.492188 L 337.890625 295.71875 L 345.191406 291.703125 C 345.191406 291.703125 347.425781 302.503906 347.046875 302.859375 C 346.671875 303.21875 336.941406 317.402344 336.117188 319.042969 C 335.292969 320.683594 331.707031 324.359375 330.277344 325.566406 C 328.847656 326.777344 325.714844 326.445312 324.683594 326.5625 C 323.648438 326.679688 318.886719 326.492188 318.886719 326.492188 Z M 318.886719 326.492188 " fill-opacity="1" fill-rule="nonzero"/><path fill="#87d4ff" d="M 325.964844 321.847656 C 325.992188 322.164062 336.378906 331.371094 336.378906 331.371094 L 355.917969 300.410156 L 345.058594 291.585938 Z M 325.964844 321.847656 " fill-opacity="1" fill-rule="nonzero"/><path fill="#1d1e5f" d="M 318.886719 326.492188 L 326.5625 321.605469 L 336.378906 331.371094 L 329.222656 335.851562 Z M 318.886719 326.492188 " fill-opacity="1" fill-rule="nonzero"/><path fill="#7d2bfc" d="M 344.261719 33.378906 C 346.191406 36.625 345.125 40.816406 341.882812 42.746094 C 338.648438 44.671875 334.464844 43.605469 332.535156 40.359375 C 331.652344 38.871094 331.394531 37.175781 331.695312 35.601562 C 326.648438 39.871094 319.070312 34.984375 320.726562 28.644531 C 317.484375 31.738281 312.347656 30.917969 310.136719 27.203125 C 308.214844 23.964844 309.269531 19.777344 312.511719 17.847656 C 317.75 14.730469 324.113281 19.554688 322.601562 25.433594 C 327.308594 20.796875 335.296875 25.125 334.035156 31.640625 C 336.964844 29.039062 342.027344 29.625 344.261719 33.378906 Z M 344.261719 33.378906 " fill-opacity="1" fill-rule="nonzero"/><path fill="#1d1e5f" d="M 345.210938 37.195312 C 344.898438 43.917969 336 46.183594 332.535156 40.355469 C 331.652344 38.867188 331.394531 37.175781 331.695312 35.597656 C 326.648438 39.867188 319.070312 34.984375 320.726562 28.640625 C 317.484375 31.738281 312.347656 30.917969 310.136719 27.203125 C 308.921875 25.15625 308.894531 22.738281 309.855469 20.75 C 309.578125 26.8125 316.886719 30.304688 321.398438 25.996094 C 319.738281 32.351562 327.335938 37.207031 332.367188 32.953125 C 332.066406 34.53125 332.324219 36.222656 333.207031 37.710938 C 336.027344 42.457031 342.90625 42.011719 345.210938 37.195312 Z M 345.210938 37.195312 " fill-opacity="1" fill-rule="nonzero"/><path fill="#f7b40d" d="M 143.5625 36.773438 L 138.351562 37.503906 C 137.972656 37.5625 137.683594 37.824219 137.59375 38.144531 C 137.566406 38.144531 137.535156 38.144531 137.535156 38.144531 C 137.535156 38.144531 138.410156 34.242188 138.46875 34.210938 C 138.582031 33.921875 138.847656 33.714844 139.195312 33.65625 C 141.523438 33.308594 142.832031 33.132812 143.621094 33.015625 L 144.347656 35.550781 C 144.492188 36.105469 144.144531 36.6875 143.5625 36.773438 Z M 143.5625 36.773438 " fill-opacity="1" fill-rule="nonzero"/><path fill="#f7b40d" d="M 148.597656 30.308594 L 144.171875 31.183594 C 143.851562 31.238281 143.621094 31.445312 143.503906 31.707031 C 143.503906 31.707031 144.289062 27.917969 144.316406 27.890625 C 144.433594 27.597656 144.695312 27.394531 145.015625 27.308594 L 145.714844 27.164062 C 146.820312 26.929688 147.636719 26.753906 148.21875 26.667969 L 148.800781 26.578125 L 149.351562 29.171875 C 149.46875 29.695312 149.121094 30.191406 148.597656 30.308594 Z M 148.597656 30.308594 " fill-opacity="1" fill-rule="nonzero"/><path fill="#f7b40d" d="M 163.414062 37.824219 L 162.597656 41.320312 C 162.597656 41.203125 162.566406 41.085938 162.511719 40.96875 L 155.929688 24.949219 C 155.785156 24.597656 155.496094 24.394531 155.144531 24.367188 L 154.914062 24.367188 L 149.558594 25.09375 C 149.207031 25.152344 148.945312 25.355469 148.828125 25.648438 L 149.585938 22.09375 L 149.585938 22.007812 C 149.671875 21.628906 149.992188 21.308594 150.402344 21.25 L 155.757812 20.492188 C 156.105469 20.433594 156.457031 20.609375 156.660156 20.871094 C 156.71875 20.929688 156.746094 21.015625 156.777344 21.074219 L 163.355469 37.125 C 163.441406 37.328125 163.441406 37.5625 163.382812 37.792969 Z M 163.414062 37.824219 " fill-opacity="1" fill-rule="nonzero"/><path fill="#1d1e5f" d="M 163.414062 37.824219 L 162.597656 41.320312 C 162.597656 41.203125 162.566406 41.085938 162.511719 40.96875 L 155.929688 24.949219 C 155.785156 24.597656 155.496094 24.394531 155.144531 24.367188 L 156.660156 20.871094 C 156.71875 20.929688 156.746094 21.015625 156.777344 21.074219 L 163.355469 37.125 C 163.441406 37.328125 163.441406 37.5625 163.382812 37.792969 Z M 163.414062 37.824219 " fill-opacity="1" fill-rule="nonzero"/><path fill="#1d1e5f" d="M 148.597656 30.308594 L 144.171875 31.183594 C 143.851562 31.238281 143.621094 31.445312 143.503906 31.707031 C 143.503906 31.707031 144.289062 27.917969 144.316406 27.890625 C 144.433594 27.597656 144.695312 27.394531 145.015625 27.308594 L 145.714844 27.164062 L 148.21875 26.667969 L 148.800781 26.578125 L 149.351562 29.171875 C 149.46875 29.695312 149.121094 30.191406 148.597656 30.308594 Z M 148.597656 30.308594 " fill-opacity="1" fill-rule="nonzero"/><path fill="#ffda66" d="M 162.597656 41.320312 L 162.597656 41.347656 L 162.480469 41.785156 C 162.480469 41.8125 162.480469 41.8125 162.480469 41.8125 C 162.304688 42.105469 162.015625 42.28125 161.664062 42.308594 L 140.011719 43.300781 C 139.601562 43.328125 139.222656 43.066406 139.078125 42.6875 L 137.59375 38.8125 C 137.507812 38.582031 137.507812 38.347656 137.59375 38.144531 C 137.683594 37.824219 137.972656 37.5625 138.351562 37.503906 L 143.5625 36.773438 C 144.144531 36.6875 144.492188 36.105469 144.347656 35.550781 L 143.621094 33.015625 L 143.445312 32.40625 C 143.355469 32.144531 143.386719 31.910156 143.503906 31.707031 C 143.621094 31.445312 143.851562 31.238281 144.171875 31.183594 L 148.597656 30.308594 C 149.121094 30.191406 149.46875 29.695312 149.351562 29.171875 L 148.800781 26.578125 L 148.742188 26.257812 C 148.683594 26.085938 148.742188 25.910156 148.828125 25.734375 C 148.828125 25.707031 148.828125 25.707031 148.828125 25.675781 L 148.828125 25.648438 C 148.945312 25.355469 149.207031 25.152344 149.558594 25.09375 L 154.914062 24.367188 L 155.144531 24.367188 C 155.496094 24.394531 155.785156 24.597656 155.929688 24.949219 L 162.511719 40.96875 C 162.566406 41.085938 162.597656 41.203125 162.597656 41.320312 Z M 162.597656 41.320312 " fill-opacity="1" fill-rule="nonzero"/><path fill="#ffda66" d="M 148.828125 25.675781 C 148.828125 25.707031 148.828125 25.707031 148.828125 25.734375 L 148.800781 25.734375 Z M 148.828125 25.675781 " fill-opacity="1" fill-rule="nonzero"/><path fill="#ffda66" d="M 148.828125 25.675781 C 148.828125 25.707031 148.828125 25.707031 148.828125 25.734375 L 148.800781 25.734375 Z M 148.828125 25.675781 " fill-opacity="1" fill-rule="nonzero"/><path fill="#000000" d="M 160.332031 206.71875 C 160.257812 206.53125 160.347656 206.320312 160.535156 206.246094 L 187.921875 195.433594 C 188.367188 195.257812 188.640625 195.933594 188.191406 196.113281 L 160.804688 206.925781 C 160.621094 207 160.40625 206.910156 160.332031 206.71875 Z M 160.332031 206.71875 " fill-opacity="1" fill-rule="nonzero"/><path fill="#000000" d="M 169.519531 198.789062 C 169.375 198.789062 169.234375 198.699219 169.179688 198.554688 C 169.105469 198.367188 169.199219 198.15625 169.386719 198.085938 L 179.074219 194.320312 C 179.523438 194.144531 179.785156 194.828125 179.335938 194.996094 L 169.648438 198.761719 C 169.605469 198.78125 169.5625 198.789062 169.519531 198.789062 Z M 169.519531 198.789062 " fill-opacity="1" fill-rule="nonzero"/><path fill="#000000" d="M 146.015625 192.15625 C 86.335938 190.417969 115.882812 191.28125 107.34375 191.03125 C 107.183594 191.035156 107.914062 191.011719 105.804688 191.078125 C 105.609375 191.078125 105.449219 190.925781 105.441406 190.730469 C 105.402344 189.800781 106.011719 190.539062 146.027344 191.429688 C 146.222656 191.4375 146.382812 191.601562 146.378906 191.804688 C 146.371094 192 146.210938 192.15625 146.015625 192.15625 Z M 146.015625 192.15625 " fill-opacity="1" fill-rule="nonzero"/><path fill="#000000" d="M 79.535156 189.902344 C 79.171875 189.898438 52.765625 189.617188 53.058594 189.621094 C 52.855469 189.621094 52.695312 189.457031 52.695312 189.257812 C 52.695312 189.054688 52.855469 188.890625 53.058594 188.890625 L 53.691406 188.890625 L 79.539062 189.175781 C 79.742188 189.175781 79.902344 189.34375 79.902344 189.539062 C 79.898438 189.742188 79.734375 189.902344 79.535156 189.902344 Z M 79.535156 189.902344 " fill-opacity="1" fill-rule="nonzero"/><path fill="#000000" d="M 111.832031 232.304688 C 94.851562 206.855469 95.152344 207.863281 94.496094 205.980469 C 94.34375 205.53125 95.019531 205.277344 95.183594 205.742188 C 95.800781 207.523438 95.371094 206.34375 112.433594 231.902344 C 112.707031 232.296875 112.089844 232.707031 111.832031 232.304688 Z M 111.832031 232.304688 " fill-opacity="1" fill-rule="nonzero"/><path fill="#000000" d="M 77.609375 227.945312 C 86.277344 204.777344 85.15625 208.441406 85.671875 205.988281 C 85.714844 205.792969 85.898438 205.65625 86.101562 205.703125 C 86.941406 205.875 86.332031 206.691406 78.292969 228.203125 C 78.113281 228.65625 77.441406 228.394531 77.609375 227.945312 Z M 77.609375 227.945312 " fill-opacity="1" fill-rule="nonzero"/></svg>