<svg xmlns="http://www.w3.org/2000/svg" xmlns:xlink="http://www.w3.org/1999/xlink" width="100" zoomAndPan="magnify" viewBox="0 0 75 74.999997" height="100" preserveAspectRatio="xMidYMid meet" version="1.0"><path fill="#010101" d="M 15.179688 32.953125 C 13.003906 33.972656 7.242188 38.5625 6.128906 39.921875 C 4.976562 41.285156 4.636719 39.15625 5.832031 35.628906 C 6.769531 32.78125 9.160156 28.914062 13.175781 25.597656 C 15.523438 23.683594 20.6875 20.921875 23.847656 19.304688 C 24.488281 18.964844 32.769531 15.480469 40.15625 13.738281 C 40.796875 13.566406 39.386719 14.800781 39.171875 15.480469 C 38.0625 18.710938 15.90625 32.570312 15.90625 32.570312 Z M 46.386719 71.933594 C 46.773438 74.226562 46.429688 74.398438 44.039062 74.695312 C 41.648438 74.992188 39.898438 74.101562 39.257812 73.503906 C 38.617188 72.910156 38.492188 71.59375 39.128906 70.402344 C 39.515625 69.636719 39.898438 69.382812 40.113281 68.445312 C 40.324219 67.554688 40.496094 67.339844 40.667969 67 C 40.839844 66.703125 40.882812 66.40625 40.921875 64.324219 C 40.964844 62.238281 40.921875 58.328125 41.136719 56.671875 C 41.351562 54.972656 48.734375 57.4375 48.734375 57.4375 C 48.734375 57.4375 46.984375 61.773438 46.515625 62.835938 C 46.046875 63.898438 46.089844 65.9375 46.089844 66.363281 C 46.089844 66.789062 45.917969 67.636719 45.789062 67.679688 C 45.664062 67.722656 46.21875 68.828125 45.960938 69.464844 C 45.789062 70.0625 46.34375 71.59375 46.386719 71.933594 Z M 49.207031 6.9375 C 48.949219 5.320312 49.207031 2.132812 49.546875 1.621094 C 50.613281 0.175781 56.25 0.0078125 57.445312 1.707031 C 57.957031 2.472656 57.914062 4.257812 57.828125 5.40625 C 57.742188 6.554688 57.445312 9.019531 57.402344 9.828125 C 57.359375 10.421875 51.167969 11.355469 49.804688 9.742188 C 49.417969 9.316406 49.207031 6.9375 49.207031 6.9375 Z M 61.757812 67.808594 C 64.359375 69.679688 66.367188 70.019531 67.691406 70.699219 C 69.015625 71.378906 68.671875 72.699219 66.453125 73.078125 C 64.660156 73.417969 61.84375 72.738281 59.964844 72.738281 C 58.085938 72.738281 53.902344 72.953125 52.792969 72.1875 C 51.511719 71.292969 52.066406 69.636719 52.066406 69.636719 C 52.40625 68.703125 53.261719 66.617188 53.003906 64.917969 C 52.75 63.21875 52.40625 62.28125 51.765625 60.710938 C 51.125 59.136719 50.65625 55.269531 51.253906 55.054688 C 51.851562 54.84375 51.679688 55.054688 52.449219 55.226562 C 53.21875 55.394531 54.070312 55.652344 55.738281 55.652344 C 57.402344 55.652344 59.238281 55.394531 59.878906 55.269531 C 60.519531 55.140625 61.03125 55.011719 60.816406 56.332031 C 60.605469 57.648438 59.964844 60.113281 59.921875 62.027344 C 59.878906 63.941406 59.878906 66.152344 60.007812 66.535156 C 60.132812 66.917969 61.074219 67.339844 61.757812 67.808594 Z M 61.757812 67.808594 " fill-opacity="1" fill-rule="nonzero"/><path fill="#8ac640" d="M 52.621094 11.1875 C 47.925781 15.226562 38.832031 16.332031 25.339844 21.515625 C 21.882812 22.835938 12.664062 26.789062 10.441406 30.910156 C 17.914062 26.617188 20.6875 32.527344 21.285156 38.605469 C 21.839844 44.300781 24.699219 47.277344 32.042969 47.105469 C 39.601562 46.9375 41.90625 51.316406 43.996094 56.460938 C 48.054688 36.777344 54.542969 32.953125 58.726562 29.59375 C 67.605469 22.410156 56.675781 9.742188 52.621094 11.1875 Z M 52.621094 11.1875 " fill-opacity="1" fill-rule="nonzero"/><path fill="#8ac640" d="M 52.621094 11.1875 C 41.351562 15.097656 30.207031 16.074219 17.101562 24.109375 C 13.984375 26.023438 7.410156 30.359375 6.128906 38.648438 C 10.910156 33.375 21.96875 26.746094 35.5 22.535156 C 42.332031 20.410156 47.328125 19.007812 53.390625 16.671875 C 52.960938 13.949219 52.960938 12.886719 52.621094 11.1875 Z M 52.621094 11.1875 " fill-opacity="1" fill-rule="nonzero"/><path fill="#010101" d="M 67.007812 34.480469 C 67.007812 34.480469 66.195312 37.246094 64.574219 38.136719 C 64.574219 38.136719 63.378906 38.5625 60.988281 37.246094 C 60.304688 36.863281 59.792969 35.542969 59.835938 35.121094 C 59.878906 34.097656 60.519531 33.632812 60.519531 33.632812 C 60.519531 33.632812 61.203125 32.484375 62.011719 32.527344 C 62.824219 32.570312 64.191406 32.695312 64.617188 32.3125 C 65 31.890625 67.09375 33.078125 67.007812 34.480469 Z M 49.589844 7.742188 C 49.589844 7.742188 49.417969 9.910156 49.121094 11.273438 C 49.078125 11.527344 47.796875 11.65625 46.859375 12.039062 C 48.652344 17.136719 59.453125 17.09375 60.859375 14.585938 C 60.175781 14.121094 58.8125 13.398438 58.171875 13.140625 C 57.53125 12.886719 57.574219 12.929688 57.53125 11.738281 C 57.488281 10.550781 57.402344 8.339844 57.316406 7.742188 C 57.230469 7.148438 50.613281 7.148438 49.589844 7.742188 Z M 49.589844 7.742188 " fill-opacity="1" fill-rule="nonzero"/><path fill="#f0efef" d="M 50.015625 7.742188 C 50.015625 7.742188 50.015625 8.976562 49.886719 10.167969 C 49.847656 10.71875 49.804688 11.058594 49.71875 11.484375 C 49.675781 11.738281 51.167969 12.757812 51.597656 15.011719 C 53.644531 19.5625 58.382812 17.308594 60.347656 15.140625 C 59.664062 14.671875 58.554688 14.035156 57.273438 13.523438 C 56.632812 13.269531 56.933594 12.71875 56.890625 11.527344 C 56.847656 10.335938 56.675781 8.59375 56.589844 7.957031 C 56.503906 7.320312 51.042969 7.148438 50.015625 7.742188 Z M 50.015625 7.742188 " fill-opacity="1" fill-rule="nonzero"/><path fill="#010101" d="M 49.589844 7.742188 C 49.589844 7.742188 49.546875 8.507812 49.417969 9.402344 C 49.972656 9.953125 50.699219 10.71875 51.253906 11.1875 C 51.640625 11.527344 52.578125 11.484375 53.433594 11.484375 C 54.199219 11.484375 54.882812 11.570312 55.183594 11.398438 C 55.867188 11.058594 56.847656 10.210938 57.402344 9.570312 C 57.359375 8.804688 57.316406 8.082031 57.273438 7.742188 C 57.230469 7.148438 50.613281 7.148438 49.589844 7.742188 Z M 49.589844 7.742188 " fill-opacity="1" fill-rule="nonzero"/><path fill="#010101" d="M 53.476562 10.972656 C 52.960938 10.972656 52.363281 10.933594 51.894531 10.847656 C 51.679688 10.804688 51.46875 10.675781 51.296875 10.59375 C 51 10.378906 50.699219 10.125 50.359375 9.867188 C 49.675781 9.359375 49.632812 9.0625 49.632812 8.933594 C 49.929688 6.257812 49.546875 4.003906 49.546875 4.003906 C 49.546875 4.003906 49.25 2.855469 50.871094 2.558594 C 52.492188 2.261719 53.472656 2.21875 53.472656 2.21875 C 53.472656 2.21875 54.5 2.21875 56.078125 2.558594 C 57.699219 2.855469 57.402344 4.003906 57.402344 4.003906 C 57.402344 4.003906 57.019531 6.257812 57.316406 8.933594 C 57.316406 9.0625 57.273438 9.359375 56.589844 9.867188 C 55.992188 10.292969 55.523438 10.761719 55.054688 10.847656 C 54.585938 10.933594 53.988281 10.972656 53.476562 10.972656 Z M 53.476562 10.972656 " fill-opacity="1" fill-rule="nonzero"/><path fill="#010101" d="M 53.476562 1.113281 C 50.65625 1.113281 50.101562 1.878906 49.289062 2.726562 C 49.121094 2.941406 49.25 4.214844 49.546875 6.9375 L 49.929688 6.9375 C 49.929688 6.9375 49.675781 6.171875 49.71875 5.277344 C 49.761719 4.386719 49.929688 4.429688 49.804688 4.214844 C 49.632812 3.960938 49.289062 3.535156 50.058594 3.109375 C 50.828125 2.683594 52.023438 3.449219 53.476562 3.492188 C 54.925781 3.449219 56.164062 2.683594 56.933594 3.109375 C 57.699219 3.535156 57.359375 3.960938 57.1875 4.214844 C 57.019531 4.46875 57.230469 4.386719 57.273438 5.277344 C 57.316406 6.171875 57.0625 6.9375 57.0625 6.9375 L 57.445312 6.9375 C 57.699219 4.214844 57.871094 3.023438 57.742188 2.8125 C 57.019531 1.878906 56.292969 1.15625 53.476562 1.113281 Z M 67.007812 34.609375 C 67.007812 34.609375 66.195312 37.203125 64.617188 38.09375 C 64.273438 37.925781 64.316406 37.671875 64.019531 37.289062 C 63.933594 37.160156 63.636719 37.074219 63.507812 36.949219 C 63.378906 36.820312 63.421875 36.605469 63.207031 36.4375 C 63.039062 36.265625 62.910156 36.394531 62.738281 36.265625 C 62.566406 36.097656 62.523438 35.882812 62.398438 35.757812 C 62.3125 35.671875 61.96875 35.628906 61.882812 35.542969 C 61.671875 35.332031 59.792969 34.949219 59.878906 34.523438 C 60.050781 33.886719 60.390625 33.417969 60.390625 33.417969 C 60.390625 33.417969 61.203125 32.230469 62.011719 32.269531 C 62.824219 32.3125 63.59375 32.484375 64.019531 32.101562 C 64.488281 31.675781 67.136719 33.25 67.007812 34.609375 Z M 67.007812 34.609375 " fill-opacity="1" fill-rule="nonzero"/><path fill="#010101" d="M 61.457031 15.820312 C 61.457031 15.820312 64.148438 15.183594 65.984375 16.925781 C 67.820312 18.710938 67.691406 20.921875 67.136719 22.28125 C 67.605469 22.835938 68.460938 24.363281 67.820312 26.191406 C 70.636719 28.574219 69.398438 32.230469 66.878906 34.652344 C 66.878906 34.652344 66.28125 32.441406 63.890625 32.3125 C 63.976562 31.464844 61.671875 30.785156 62.738281 28.574219 C 61.117188 28.191406 61.160156 27.085938 60.902344 25.726562 C 60.6875 24.363281 61.457031 15.820312 61.457031 15.820312 Z M 61.457031 15.820312 " fill-opacity="1" fill-rule="nonzero"/><path fill="#f0efef" d="M 60.476562 17.011719 C 60.476562 17.011719 63.59375 15.4375 65.429688 17.222656 C 67.261719 19.007812 66.75 20.964844 66.195312 22.324219 C 66.664062 22.875 67.777344 24.449219 67.09375 26.320312 C 66.964844 26.746094 66.027344 26.746094 65.34375 27.851562 C 67.050781 26.871094 68.117188 27.128906 68.5 28.359375 C 69.097656 30.273438 67.777344 32.570312 66.625 33.84375 C 66.625 33.800781 66.582031 33.757812 66.582031 33.714844 C 66.410156 34.355469 66.195312 35.585938 64.914062 36.945312 C 64.273438 37.628906 63.761719 37.542969 63.035156 37.371094 C 62.183594 37.160156 61.882812 36.777344 60.6875 36.140625 C 60.007812 35.757812 60.390625 35.289062 60.390625 34.90625 C 60.390625 34.820312 60.476562 34.695312 60.605469 34.523438 C 60.6875 34.3125 60.945312 33.972656 61.328125 33.589844 C 61.328125 33.589844 61.882812 32.824219 62.695312 32.867188 C 63.507812 32.910156 64.359375 32.738281 64.574219 32.527344 C 64.574219 31.039062 62.867188 30.996094 63.464844 28.445312 C 63.507812 28.316406 63.71875 28.105469 64.402344 28.019531 C 63.378906 27.808594 62.910156 27.765625 62.183594 27.085938 C 61.671875 26.617188 61.285156 26.023438 61.160156 25.257812 C 60.902344 23.941406 60.476562 17.011719 60.476562 17.011719 Z M 60.476562 17.011719 " fill-opacity="1" fill-rule="nonzero"/><path fill="#010101" d="M 51.46875 14.332031 C 51.210938 13.992188 49.886719 12.292969 47.371094 11.613281 C 46.644531 11.398438 46.175781 11.996094 45.449219 12.417969 C 45.234375 12.292969 44.296875 11.867188 43.785156 12.164062 C 43.273438 12.460938 42.929688 12.761719 42.417969 12.972656 C 42.160156 12.84375 41.480469 12.84375 40.921875 13.058594 C 40.367188 13.226562 39.515625 13.609375 38.703125 14.714844 C 38.191406 16.542969 47.753906 15.183594 47.753906 15.183594 Z M 51.46875 14.332031 " fill-opacity="1" fill-rule="nonzero"/><path fill="#8ac640" d="M 51.554688 14.332031 C 50.1875 13.863281 50.402344 12.292969 47.371094 12.039062 C 46.773438 11.996094 46.386719 12.460938 45.960938 12.761719 C 46.175781 12.972656 46.386719 13.3125 46.515625 13.652344 C 46.132812 13.226562 45.449219 12.675781 44.765625 12.546875 C 44.125 12.417969 43.699219 12.886719 43.015625 13.226562 C 43.144531 13.355469 43.269531 13.566406 43.441406 13.824219 C 42.84375 13.441406 42.417969 13.3125 41.605469 13.609375 C 41.050781 13.78125 39.984375 14.246094 39.171875 15.394531 C 38.660156 17.222656 47.796875 15.183594 47.796875 15.183594 Z M 51.554688 14.332031 " fill-opacity="1" fill-rule="nonzero"/><path fill="#010101" d="M 59.578125 15.011719 C 59.578125 15.011719 59.578125 14.546875 59.535156 14.121094 C 59.535156 14.035156 59.195312 13.824219 59.195312 13.738281 L 59.109375 13.652344 C 59.109375 13.652344 59.792969 13.269531 60.304688 13.484375 C 60.859375 13.652344 61.160156 14.375 61.160156 14.375 C 62.140625 14.035156 62.226562 14.417969 62.695312 14.929688 C 63.71875 14.714844 63.847656 15.097656 64.488281 16.03125 C 64.488281 16.03125 63.71875 15.90625 62.226562 16.160156 C 60.773438 16.371094 59.578125 14.96875 59.578125 15.011719 Z M 59.578125 15.011719 " fill-opacity="1" fill-rule="nonzero"/><path fill="#8ac640" d="M 59.410156 14.800781 C 59.410156 14.800781 59.664062 14.585938 59.578125 14.546875 C 60.046875 14.289062 60.6875 13.992188 60.988281 14.800781 C 61.96875 14.460938 62.097656 14.925781 62.566406 15.4375 C 63.761719 14.886719 63.847656 15.566406 63.933594 15.863281 C 63.550781 15.863281 62.996094 15.90625 62.226562 15.992188 C 60.773438 16.203125 59.367188 14.757812 59.410156 14.800781 Z M 59.410156 14.800781 " fill-opacity="1" fill-rule="nonzero"/><path fill="#010101" d="M 44.894531 13.738281 C 44.894531 13.738281 47.328125 14.585938 49.375 14.460938 C 51.425781 14.289062 54.925781 14.121094 56.804688 15.226562 C 56.804688 15.226562 58.726562 14.546875 60.519531 15.011719 C 62.3125 15.480469 65.597656 18.539062 64.617188 21.773438 C 64.53125 21.984375 63.976562 22.324219 63.335938 22.535156 C 63.335938 22.535156 63.679688 23.980469 63.082031 25.171875 C 62.484375 26.320312 61.160156 28.53125 61.117188 31.589844 C 61.074219 32.101562 60.988281 33.164062 60.902344 33.675781 C 57.574219 33.546875 52.449219 32.3125 47.414062 32.398438 C 47.457031 31.847656 47.496094 31.507812 47.539062 30.953125 L 47.667969 30.953125 C 47.414062 29.550781 47.328125 28.828125 47.070312 27.765625 C 45.449219 26.746094 43.742188 25.554688 42.289062 23.300781 C 40.878906 21.046875 44.894531 13.738281 44.894531 13.738281 Z M 61.371094 36.691406 C 61.371094 36.691406 64.019531 46.128906 60.902344 50.082031 C 60.902344 50.082031 61.371094 51.910156 60.304688 53.867188 C 60.132812 54.714844 59.921875 55.480469 59.792969 56.332031 C 59.238281 59.859375 58.296875 61.347656 58.042969 67 L 55.480469 66.957031 C 55.480469 66.957031 55.183594 62.878906 54.285156 60.710938 C 53.773438 59.476562 51.765625 57.820312 51.851562 56.160156 C 51.9375 54.886719 52.195312 53.824219 54.371094 52.121094 C 54.542969 49.65625 52.066406 47.320312 52.449219 38.136719 Z M 61.371094 36.691406 " fill-opacity="1" fill-rule="nonzero"/><path fill="#f0efef" d="M 60.605469 36.308594 C 61.289062 40.644531 62.867188 47.0625 60.007812 50.210938 C 60.175781 51.015625 60.191406 51.824219 60.050781 52.632812 C 59.964844 53.144531 59.792969 53.695312 59.578125 54.289062 C 59.152344 55.3125 58.980469 56.796875 58.855469 57.691406 C 58.296875 61.21875 58.296875 61.390625 58.042969 67.042969 L 55.480469 67 C 55.480469 67 55.183594 62.921875 54.285156 60.753906 C 53.773438 59.519531 52.707031 58.457031 52.621094 56.800781 C 52.535156 55.523438 53.433594 52.972656 55.566406 53.058594 C 55.4375 47.914062 53.046875 48.933594 52.40625 38.222656 Z M 44.894531 13.738281 C 44.894531 13.738281 45.832031 14.035156 46.859375 14.121094 C 47.882812 14.203125 48.992188 14.121094 49.972656 14.078125 C 52.023438 13.90625 54.925781 13.695312 56.847656 14.800781 C 56.847656 14.800781 57.914062 14.460938 59.066406 14.546875 C 59.578125 14.585938 60.09375 15.011719 60.6875 15.183594 C 62.566406 15.648438 64.359375 18.753906 63.550781 21.558594 C 63.464844 21.773438 62.867188 21.558594 62.183594 21.773438 C 62.3125 22.367188 62.398438 23.726562 61.714844 25.171875 C 60.988281 26.617188 60.050781 28.488281 60.21875 32.058594 C 55.738281 31.847656 53.730469 31.550781 49.289062 31.335938 C 48.90625 29.761719 48.648438 28.191406 48.609375 27.382812 C 49.207031 27.085938 49.546875 26.832031 50.015625 26.320312 C 48.734375 26.53125 48.222656 26.449219 47.453125 26.023438 C 46.6875 25.597656 45.320312 24.238281 44.636719 23.34375 C 44.550781 23.257812 44.082031 24.664062 43.015625 24.703125 C 42.632812 24.152344 44.253906 22.578125 43.953125 21.984375 C 42.886719 19.816406 44.894531 13.738281 44.894531 13.738281 Z M 44.894531 13.738281 " fill-opacity="1" fill-rule="nonzero"/><path fill="#010101" d="M 60.945312 32.78125 C 60.945312 32.78125 61.03125 34.3125 61.03125 34.695312 C 61.03125 35.121094 61.371094 36.394531 61.414062 36.988281 C 60.945312 37.796875 58.894531 39.625 55.183594 40.304688 C 51.511719 41.070312 46.644531 35.332031 46.644531 35.332031 C 46.773438 34.78125 47.199219 33.164062 47.496094 32.3125 C 47.539062 32.230469 47.625 32.015625 47.625 31.929688 C 48.011719 31.378906 60.945312 32.78125 60.945312 32.78125 Z M 60.945312 32.78125 " fill-opacity="1" fill-rule="nonzero"/><path fill="#f0efef" d="M 60.007812 32.910156 C 60.007812 33.972656 60.175781 34.738281 60.304688 35.417969 C 60.519531 36.648438 60.859375 37.457031 60.859375 38.265625 C 60.859375 40.730469 57.617188 40.304688 54.882812 40.390625 C 51.210938 41.15625 48.09375 35.417969 48.09375 35.417969 C 48.351562 34.441406 48.523438 33.335938 48.90625 32.398438 C 48.949219 31.890625 49.035156 31.25 49.078125 30.953125 C 54.285156 30.953125 57.957031 31.25 60.089844 31.464844 C 60.175781 31.929688 60.089844 32.738281 60.007812 32.910156 Z M 60.007812 32.910156 " fill-opacity="1" fill-rule="nonzero"/><path fill="#010101" d="M 55.90625 38.394531 C 55.90625 38.394531 53.644531 33.375 46.855469 34.863281 C 45.234375 39.414062 43.058594 44.640625 44.464844 50.296875 C 43.058594 52.207031 41.4375 53.269531 41.4375 56.800781 C 41.4375 60.328125 41.605469 60.921875 41.605469 60.921875 L 46.601562 61.175781 C 46.601562 61.175781 48.222656 59.09375 48.863281 56.84375 C 49.035156 56.203125 49.207031 55.054688 49.078125 53.738281 C 49.246094 53.484375 49.972656 52.890625 50.058594 51.742188 C 50.058594 51.742188 52.492188 50.464844 53.902344 47.363281 C 55.226562 44.554688 54.882812 42.132812 55.90625 38.394531 Z M 55.90625 38.394531 " fill-opacity="1" fill-rule="nonzero"/><path fill="#f0efef" d="M 55.90625 38.394531 C 55.78125 37.925781 54.070312 33.335938 47.753906 34.695312 C 44.039062 44.554688 45.40625 48.636719 45.960938 50.421875 C 43.441406 53.609375 42.289062 54.289062 42.800781 60.753906 L 46.132812 60.753906 C 47.667969 58.328125 48.011719 57.4375 48.09375 54.25 C 48.09375 54.121094 47.625 54.503906 47.285156 54.929688 C 47.539062 53.609375 48.265625 53.355469 48.820312 52.546875 C 49.078125 52.207031 49.289062 51.699219 49.289062 51.019531 C 52.277344 49.019531 53.390625 46.511719 54.03125 43.917969 C 54.542969 42.132812 55.140625 39.199219 55.90625 38.394531 Z M 55.90625 38.394531 " fill-opacity="1" fill-rule="nonzero"/><path fill="#010101" d="M 45.363281 31.546875 C 45.363281 31.546875 46.515625 31.589844 47.539062 31.929688 C 48.523438 32.269531 48.523438 32.484375 48.90625 32.910156 C 49.292969 33.335938 50.230469 33.972656 50.058594 34.609375 C 49.972656 34.949219 49.761719 35.035156 49.460938 35.332031 C 49.332031 35.460938 48.394531 36.480469 48.179688 36.605469 C 48.054688 36.691406 47.882812 36.820312 47.753906 36.90625 L 47.113281 37.328125 C 46.6875 37.542969 46.386719 37.671875 45.917969 37.628906 C 45.917969 37.628906 44.851562 37.585938 44.167969 36.863281 C 44.167969 36.863281 44.082031 36.523438 44.253906 36.351562 C 44.253906 36.351562 43.355469 35.585938 43.101562 35.078125 C 42.84375 34.566406 42.84375 33.84375 43.015625 33.460938 C 43.101562 33.078125 44.765625 32.015625 45.363281 31.546875 Z M 46.429688 72.910156 L 46.300781 73.972656 C 46.300781 73.972656 45.917969 74.441406 43.058594 74.398438 C 40.15625 74.355469 39.386719 73.460938 39.128906 72.996094 L 38.960938 71.890625 C 38.960938 71.890625 39.515625 71.082031 39.644531 71.082031 C 40.582031 71.167969 43.785156 72.441406 46.003906 72.78125 C 46.21875 72.78125 46.257812 72.867188 46.429688 72.910156 Z M 52.621094 70.742188 C 52.621094 71.210938 52.578125 71.210938 52.578125 71.675781 C 53.089844 72.058594 54.371094 72.273438 56.804688 72.230469 C 60.347656 72.144531 63.636719 73.292969 67.648438 72.613281 L 67.691406 71.847656 L 67.304688 71.804688 L 53.089844 70.65625 Z M 52.621094 70.742188 " fill-opacity="1" fill-rule="nonzero"/><path fill="#010101" d="M 55.738281 72.230469 L 56.804688 72.230469 C 59.109375 72.144531 61.289062 72.65625 63.636719 72.78125 C 64.875 72.738281 66.410156 72.441406 66.28125 71.550781 L 54.15625 70.527344 C 53.433594 71.335938 53.988281 72.015625 55.738281 72.230469 Z M 41.820312 54.332031 C 42.203125 54.589844 44.808594 56.117188 49.035156 55.90625 C 48.949219 56.714844 48.992188 58.285156 47.113281 61.050781 C 46.175781 62.410156 45.363281 64.789062 45.191406 67.808594 C 45.234375 68.488281 45.621094 69.085938 45.105469 69.976562 C 45.277344 70.527344 45.960938 71.632812 46.300781 72.316406 C 46.644531 72.996094 46.816406 73.761719 44.550781 73.800781 C 42.246094 73.84375 38.53125 73.589844 39.046875 71.804688 C 39.300781 70.871094 40.027344 69.890625 40.113281 69.507812 C 40.199219 69.125 40.199219 67.980469 40.921875 67.214844 C 41.5625 65.089844 41.351562 63.046875 41.222656 61.136719 C 41.007812 59.136719 40.964844 55.949219 41.820312 54.332031 Z M 45.789062 19.6875 C 48.820312 15.648438 46.257812 12.417969 41.394531 13.398438 C 39.429688 13.78125 37.464844 15.140625 37.335938 17.605469 C 36.695312 17.691406 35.246094 17.777344 34.519531 20.410156 C 33.964844 22.453125 33.667969 22.835938 32.683594 23.855469 C 32.042969 24.578125 32.726562 26.066406 33.195312 27.128906 C 34.777344 30.785156 39.644531 31.125 42.929688 33.886719 C 44.039062 33.589844 45.191406 32.355469 45.535156 31.546875 C 42.757812 28.273438 43.355469 27 42.246094 25.300781 C 43.441406 24.875 46.175781 23.21875 45.789062 19.6875 Z M 45.789062 19.6875 " fill-opacity="1" fill-rule="nonzero"/><path fill="#f0efef" d="M 45.191406 19.433594 C 45.363281 19.179688 45.660156 18.625 45.789062 18.414062 C 45.832031 18.371094 46.300781 19.179688 46.34375 19.136719 C 47.496094 17.265625 47.796875 14.546875 46.472656 14.289062 C 46.175781 14.246094 45.621094 14.121094 45.148438 13.949219 C 44.296875 13.652344 43.527344 13.652344 42.160156 13.90625 C 40.28125 14.246094 38.40625 15.609375 38.40625 17.5625 C 38.40625 17.691406 39.726562 18.074219 40.113281 19.644531 C 39.472656 18.753906 38.363281 17.777344 37.039062 18.625 C 35.628906 19.519531 36.355469 21.558594 34.476562 23.683594 C 33.835938 24.40625 33.921875 25.257812 34.605469 26.957031 C 35.714844 29.636719 40.964844 31.082031 43.828125 33.632812 C 44.507812 33.332031 44.980469 32.652344 45.320312 32.144531 C 43.398438 30.144531 42.628906 28.273438 42.074219 26.914062 C 41.394531 25.34375 40.625 24.449219 39.128906 23.257812 C 39.898438 23.554688 40.496094 23.855469 40.835938 24.109375 C 41.222656 24.363281 41.777344 24.40625 42.289062 24.238281 C 44.125 23.597656 45.105469 21.046875 45.191406 19.433594 Z M 45.191406 19.433594 " fill-opacity="1" fill-rule="nonzero"/><path fill="#010101" d="M 63.761719 20.113281 C 63.636719 21.730469 62.441406 20.921875 61.800781 20.625 C 60.519531 20.070312 59.238281 19.6875 57.742188 19.6875 C 56.25 19.6875 54.328125 19.816406 52.664062 20.242188 C 50.359375 20.878906 49.675781 20.835938 48.652344 20.328125 C 47.625 19.773438 45.832031 18.414062 45.832031 18.414062 C 45.832031 18.414062 45.789062 18.839844 46.21875 19.390625 C 46.773438 20.070312 48.011719 20.921875 49.675781 21.472656 C 50.488281 21.730469 51.125 21.558594 51.851562 21.390625 C 55.652344 20.453125 59.664062 20.285156 63.039062 22.324219 C 63.207031 22.410156 63.804688 22.152344 64.0625 21.773438 C 64.402344 21.21875 63.761719 20.113281 63.761719 20.113281 Z M 63.761719 20.113281 " fill-opacity="1" fill-rule="nonzero"/><path fill="#0a1825" d="M 44.339844 36.308594 C 44.679688 36.523438 45.105469 36.648438 45.578125 37.03125 C 45.578125 37.03125 45.191406 37.03125 45.023438 36.863281 C 44.808594 36.734375 44.382812 36.351562 44.339844 36.308594 Z M 44.339844 36.308594 " fill-opacity="1" fill-rule="nonzero"/><path fill="#f0efef" d="M 56.675781 2.601562 C 56.546875 2.21875 55.609375 1.539062 53.433594 1.539062 C 51.082031 1.539062 50.402344 2.261719 50.359375 2.640625 C 50.359375 2.769531 50.1875 4.128906 50.144531 4.683594 C 50.144531 4.683594 50.144531 5.363281 50.1875 6.382812 C 50.230469 7.0625 50.402344 7.445312 50.484375 8.339844 C 50.570312 9.273438 50.828125 9.867188 51.296875 10.632812 C 51.511719 10.761719 51.679688 10.890625 51.894531 10.933594 C 52.75 11.101562 54.242188 11.144531 55.054688 10.933594 C 55.523438 10.804688 56.121094 9.996094 56.25 9.273438 C 56.421875 8.382812 56.589844 7.742188 56.632812 7.191406 C 56.71875 6.640625 56.761719 5.40625 56.804688 5.066406 C 56.933594 4.128906 56.71875 2.683594 56.675781 2.601562 Z M 56.675781 2.601562 " fill-opacity="1" fill-rule="nonzero"/><path fill="#010101" d="M 52.195312 55.140625 C 52.195312 55.140625 54.457031 56.117188 60.050781 55.269531 C 60.050781 55.269531 58.46875 63.175781 59.195312 67.128906 C 59.195312 67.128906 59.921875 68.148438 65.300781 70.105469 C 65.300781 70.105469 67.691406 70.699219 67.605469 71.890625 C 67.605469 71.890625 67.691406 72.144531 64.789062 72.058594 C 61.886719 71.972656 59.152344 71.464844 57.230469 71.464844 C 55.308594 71.464844 53.261719 71.550781 52.917969 70.996094 C 52.535156 70.488281 53.003906 69.167969 53.558594 68.402344 C 54.15625 67.597656 53.988281 67 53.945312 65.554688 C 53.816406 61.773438 50.914062 57.863281 52.195312 55.140625 Z M 52.195312 55.140625 " fill-opacity="1" fill-rule="nonzero"/><path fill="#8ac640" d="M 51.722656 55.863281 C 51.425781 56.289062 51.765625 57.902344 52.195312 59.476562 C 52.621094 61.050781 53.558594 61.984375 53.773438 64.578125 C 53.988281 67.128906 54.03125 67.46875 53.304688 68.957031 C 52.578125 70.445312 52.363281 71.804688 54.882812 71.847656 C 57.402344 71.890625 58.769531 71.804688 61.328125 72.1875 C 63.890625 72.570312 64.789062 72.695312 66.195312 72.484375 C 67.605469 72.273438 67.902344 71.804688 67.304688 71.378906 C 66.707031 70.953125 64.234375 70.488281 63.164062 69.636719 C 62.140625 68.871094 59.238281 67.597656 59.195312 67.257812 C 59.066406 66.109375 59.023438 61.941406 59.238281 60.582031 C 59.453125 59.222656 59.75 57.265625 59.835938 56.757812 C 59.921875 56.246094 60.347656 55.734375 59.621094 55.90625 C 58.894531 56.074219 56.164062 56.457031 54.113281 56.332031 C 52.066406 56.203125 51.851562 55.734375 51.722656 55.863281 Z M 51.722656 55.863281 " fill-opacity="1" fill-rule="nonzero"/><path fill="#010101" d="M 53.175781 69 C 53.902344 69.339844 54.96875 69.59375 55.78125 69.59375 C 55.78125 69.59375 55.480469 70.996094 55.949219 71.847656 C 56.421875 72.699219 52.535156 72.1875 52.535156 72.1875 L 52.363281 69.167969 Z M 64.488281 72.65625 C 65.171875 72.441406 65.640625 71.675781 65.085938 70.953125 C 64.488281 70.230469 63.976562 70.105469 64.746094 70.0625 C 65.511719 70.019531 68.332031 71.71875 68.332031 71.71875 L 66.878906 73.039062 Z M 51.597656 57.523438 C 52.578125 57.863281 54.070312 57.945312 55.351562 57.902344 C 56.632812 57.863281 58.554688 57.691406 59.792969 57.265625 C 61.03125 56.839844 60.519531 57.734375 60.519531 57.734375 L 59.835938 58.371094 C 59.835938 58.371094 58.214844 59.007812 55.566406 58.96875 C 52.449219 58.925781 51.511719 58.585938 51.511719 58.585938 Z M 51.679688 59.648438 C 52.664062 59.988281 54.15625 60.070312 55.4375 60.03125 C 56.71875 59.988281 58.425781 59.988281 59.664062 59.519531 C 60.175781 59.351562 59.878906 60.074219 59.878906 60.074219 L 59.664062 60.453125 C 59.664062 60.453125 58 61.050781 55.394531 61.007812 C 52.277344 60.964844 51.722656 60.710938 51.722656 60.710938 Z M 51.679688 59.648438 " fill-opacity="0.3" fill-rule="nonzero"/><path fill="#010101" d="M 48.863281 29.847656 C 48.863281 30.144531 52.195312 31.804688 54.03125 32.144531 C 55.867188 32.484375 59.707031 32.144531 60.304688 32.015625 L 60.21875 32.613281 C 60.21875 32.613281 55.652344 33.292969 52.152344 32.355469 C 48.648438 31.421875 49.035156 31.207031 49.035156 31.207031 Z M 48.863281 29.847656 " fill-opacity="1" fill-rule="nonzero"/><path fill="#f0efef" d="M 41.734375 66.109375 C 42.246094 66.363281 44.082031 66.832031 45.277344 66.574219 C 45.449219 66.535156 45.277344 63.644531 45.746094 62.324219 C 46.429688 60.496094 47.539062 59.007812 48.050781 55.777344 C 46.257812 55.609375 44.210938 55.140625 43.144531 54.800781 C 41.777344 58.96875 42.246094 62.539062 41.734375 66.109375 Z M 44.59375 68.785156 C 44.894531 68.871094 45.105469 69.210938 45.191406 69 C 45.363281 68.617188 44.894531 67.894531 44.851562 67.382812 L 44.851562 67.339844 C 44.46875 67 41.863281 66.957031 42.035156 67.128906 C 41.734375 67.679688 41.265625 67.597656 41.09375 68.703125 C 41.007812 69.253906 41.691406 68.785156 42.332031 68.742188 C 41.179688 69.507812 39.855469 70.488281 39.644531 71.335938 C 39.386719 72.527344 39.8125 72.867188 41.09375 73.503906 C 42.203125 73.761719 43.527344 73.804688 44.550781 73.761719 C 45.707031 73.546875 45.917969 72.996094 45.578125 72.230469 C 45.066406 71.082031 44.722656 69.59375 44.59375 68.785156 Z M 44.59375 68.785156 " fill-opacity="1" fill-rule="nonzero"/><path fill="#010101" d="M 45.066406 13.566406 C 46.472656 14.375 48.4375 14.164062 49.164062 14.121094 C 49.332031 14.121094 51.042969 13.824219 51.125 13.863281 C 51.296875 13.90625 51.296875 14.035156 51.296875 14.035156 C 51.296875 14.035156 50.65625 14.375 49.207031 14.460938 C 47.839844 14.542969 46.21875 14.460938 45.320312 14.035156 C 44.253906 13.566406 45.066406 13.566406 45.066406 13.566406 Z M 59.578125 14.375 C 59.835938 14.546875 61.5 15.183594 62.226562 15.949219 C 62.867188 16.628906 62.523438 16.585938 62.398438 16.414062 C 62.226562 16.203125 60.902344 15.308594 60.390625 15.097656 C 59.878906 14.886719 59.238281 14.503906 59.238281 14.417969 C 59.238281 14.332031 59.578125 14.375 59.578125 14.375 Z M 59.578125 14.375 " fill-opacity="1" fill-rule="nonzero"/><path fill="#f0efef" d="M 44.851562 32.015625 C 46.089844 31.929688 47.371094 32.230469 48.179688 33.078125 C 48.609375 33.503906 49.289062 33.972656 49.207031 34.398438 C 49.207031 34.523438 48.949219 34.863281 48.734375 35.121094 C 48.609375 35.289062 48.222656 35.671875 48.09375 35.800781 C 47.925781 35.925781 47.328125 36.394531 47.199219 36.480469 C 47.070312 36.566406 46.898438 36.777344 46.773438 36.820312 C 46.34375 37.03125 45.875 36.863281 45.449219 36.648438 C 45.023438 36.4375 45.535156 36.394531 45.066406 36.054688 C 43.914062 35.246094 43.273438 34.695312 43.742188 33.121094 C 43.785156 32.824219 44.253906 32.484375 44.851562 32.015625 Z M 44.851562 32.015625 " fill-opacity="1" fill-rule="nonzero"/><path fill="#010101" d="M 33.964844 22.28125 C 30.121094 23.8125 20.347656 28.660156 17.570312 30.144531 C 19.875 31.589844 20.945312 35.078125 21.285156 38.605469 C 21.328125 38.945312 21.371094 39.242188 21.414062 39.582031 C 21.457031 39.878906 21.5 40.09375 21.542969 40.222656 C 21.542969 40.261719 21.542969 40.347656 21.585938 40.390625 C 24.101562 33.546875 33.109375 26.320312 33.453125 25.769531 C 33.625 25.511719 33.238281 24.40625 33.835938 23.34375 C 34.605469 21.984375 36.101562 21.390625 33.964844 22.28125 Z M 43.101562 54.375 C 45.066406 50.464844 45.105469 46.722656 45.066406 42.347656 C 45.066406 40.519531 46.386719 37.925781 45.703125 38.648438 C 43.144531 41.496094 36.695312 46.851562 32.042969 47.148438 C 38.574219 46.9375 41.136719 50.210938 43.101562 54.375 Z M 43.101562 54.375 " fill-opacity="0.4" fill-rule="nonzero"/><path fill="#010101" d="M 13.816406 33.757812 C 16.25 32.015625 28.84375 25.34375 31.875 24.40625 C 34.902344 23.429688 33.964844 22.28125 33.964844 22.28125 C 33.964844 22.28125 21.667969 27.550781 14.328125 32.101562 " fill-opacity="1" fill-rule="nonzero"/><path fill="#010101" d="M 49.675781 21.472656 C 48.691406 21.089844 47.925781 22.238281 48.179688 23.34375 C 48.4375 24.449219 50.742188 25.683594 50.613281 29.722656 C 50.527344 33.035156 49.804688 34.398438 49.804688 34.398438 L 48.179688 32.355469 C 48.179688 32.355469 47.925781 27.765625 47.371094 27.085938 C 46.816406 26.40625 45.066406 25.171875 44.382812 24.535156 C 43.699219 23.898438 45.148438 23.046875 45.066406 21.855469 C 44.980469 20.710938 45.789062 18.414062 45.789062 18.414062 Z M 55.609375 39.582031 C 55.523438 42.769531 56.25 47.488281 56.546875 49.742188 C 56.847656 51.996094 57.230469 52.164062 56.546875 53.1875 C 55.867188 54.164062 54.96875 55.777344 54.96875 55.777344 L 52.023438 55.523438 C 52.023438 55.523438 54.371094 52.546875 54.5 51.996094 C 54.628906 51.441406 53.304688 47.234375 53.304688 47.234375 Z M 49.929688 9.828125 C 50.527344 11.144531 51.253906 11.738281 52.40625 12.121094 C 53.089844 12.378906 55.78125 12.71875 56.847656 11.527344 C 57.316406 10.972656 57.019531 9.488281 57.019531 9.488281 L 54.585938 11.441406 L 51.296875 10.847656 L 50.914062 9.867188 Z M 49.929688 9.828125 " fill-opacity="0.4" fill-rule="nonzero"/><path stroke-linecap="butt" transform="matrix(0.20959, 0, 0, 0.208697, 5.084469, 0.485046)" fill-opacity="1" fill="#8ac640" fill-rule="nonzero" stroke-linejoin="round" d="M 215.196132 58.825291 C 220.489196 62.287993 233.721855 65.544805 237.393451 66.143759 C 241.065048 66.967321 246.973151 62.287993 249.824696 61.052651 C 252.881254 59.630135 258.174317 58.825291 264.287433 64.309463 C 264.902472 64.927134 262.852342 67.566275 262.852342 67.566275 C 262.647329 67.379101 261.435888 67.379101 259.795784 66.55554 C 258.174317 65.750695 256.739226 65.133024 254.297707 65.338915 C 244.121606 66.55554 242.481502 70.018242 233.535479 67.978055 C 224.570819 65.937869 222.315675 64.309463 213.574665 64.721243 " stroke="#010101" stroke-width="1.586" stroke-opacity="1" stroke-miterlimit="10"/><path fill="#8ac640" d="M 49.804688 12.886719 C 51.210938 13.484375 53.945312 14.121094 54.710938 14.289062 C 55.480469 14.460938 56.71875 13.695312 57.316406 13.3125 C 58.382812 12.632812 59.75 13.183594 60.390625 13.90625 C 60.816406 14.375 60.988281 14.671875 60.988281 14.800781 C 60.988281 14.96875 60.476562 14.800781 60.476562 14.800781 C 60.175781 14.671875 59.835938 14.628906 59.578125 14.460938 C 59.238281 14.289062 58.894531 14.035156 58.382812 14.078125 C 56.25 14.332031 55.824219 15.054688 53.988281 14.628906 C 52.152344 14.203125 51.683594 13.824219 49.71875 13.949219 " fill-opacity="1" fill-rule="nonzero"/><path fill="#010101" d="M 43.1875 52.589844 C 43.101562 52.503906 43.269531 52.421875 43.1875 52.421875 C 42.632812 52.421875 41.863281 51.996094 41.4375 51.398438 C 39.601562 48.765625 36.910156 47.023438 32.042969 47.148438 C 24.742188 47.320312 21.839844 44.34375 21.285156 38.648438 C 20.988281 35.542969 20.132812 32.527344 18.382812 30.824219 L 17.359375 31.464844 C 19.320312 33.164062 19.960938 35.925781 20.390625 39.710938 C 21.070312 45.40625 25.683594 48.042969 31.0625 48.128906 C 36.652344 48.210938 38.660156 49.359375 40.753906 52.164062 C 41.433594 53.058594 42.203125 53.355469 42.800781 53.484375 Z M 43.1875 52.589844 " fill-opacity="1" fill-rule="nonzero"/><path fill="#010101" d="M 62.996094 25.257812 C 63.121094 25.894531 63.464844 27.128906 64.148438 27.722656 C 64.445312 28.019531 64.488281 28.105469 64.234375 28.105469 C 63.976562 28.105469 62.097656 28.019531 62.097656 28.019531 L 61.585938 27.128906 Z M 62.996094 25.257812 " fill-opacity="0.4" fill-rule="nonzero"/></svg>